<svg xmlns="http://www.w3.org/2000/svg" xmlns:xlink="http://www.w3.org/1999/xlink" width="1080" zoomAndPan="magnify" viewBox="0 0 810 809.999993" height="1080" preserveAspectRatio="xMidYMid meet" version="1.0"><defs><g/><clipPath id="d7ecd4a5ed"><path d="M 64.128906 64.128906 L 745.871094 64.128906 L 745.871094 745.871094 L 64.128906 745.871094 Z M 64.128906 64.128906 " clip-rule="nonzero"/></clipPath><clipPath id="b064a8ffb5"><path d="M 102.378906 64.128906 L 707.621094 64.128906 C 717.765625 64.128906 727.496094 68.160156 734.667969 75.332031 C 741.839844 82.503906 745.871094 92.234375 745.871094 102.378906 L 745.871094 707.621094 C 745.871094 717.765625 741.839844 727.496094 734.667969 734.667969 C 727.496094 741.839844 717.765625 745.871094 707.621094 745.871094 L 102.378906 745.871094 C 92.234375 745.871094 82.503906 741.839844 75.332031 734.667969 C 68.160156 727.496094 64.128906 717.765625 64.128906 707.621094 L 64.128906 102.378906 C 64.128906 92.234375 68.160156 82.503906 75.332031 75.332031 C 82.503906 68.160156 92.234375 64.128906 102.378906 64.128906 Z M 102.378906 64.128906 " clip-rule="nonzero"/></clipPath><clipPath id="4cddb1e50e"><path d="M 190.019531 375 L 238 375 L 238 443 L 190.019531 443 Z M 190.019531 375 " clip-rule="nonzero"/></clipPath><clipPath id="18f7bf5808"><path d="M 244 422 L 273.269531 422 L 273.269531 458.238281 L 244 458.238281 Z M 244 422 " clip-rule="nonzero"/></clipPath><clipPath id="156738670e"><path d="M 238 347.238281 L 257 347.238281 L 257 370 L 238 370 Z M 238 347.238281 " clip-rule="nonzero"/></clipPath><clipPath id="71ff06d9dc"><path d="M 653 102 L 693 102 L 693 143 L 653 143 Z M 653 102 " clip-rule="nonzero"/></clipPath><clipPath id="48d5b04f6d"><path d="M 672.5625 94.875 L 700.140625 122.453125 L 672.5625 150.027344 L 644.984375 122.453125 Z M 672.5625 94.875 " clip-rule="nonzero"/></clipPath><clipPath id="12baab6974"><path d="M 672.5625 94.875 L 700.140625 122.453125 L 672.5625 150.027344 L 644.984375 122.453125 Z M 672.5625 94.875 " clip-rule="nonzero"/></clipPath><clipPath id="50959f6b97"><path d="M 664 114 L 681 114 L 681 131 L 664 131 Z M 664 114 " clip-rule="nonzero"/></clipPath><clipPath id="bac5566bc8"><path d="M 672.5625 94.875 L 700.140625 122.453125 L 672.5625 150.027344 L 644.984375 122.453125 Z M 672.5625 94.875 " clip-rule="nonzero"/></clipPath><clipPath id="60c85b82f8"><path d="M 672.5625 94.875 L 700.140625 122.453125 L 672.5625 150.027344 L 644.984375 122.453125 Z M 672.5625 94.875 " clip-rule="nonzero"/></clipPath><clipPath id="015c213351"><path d="M 120.351562 653.570312 L 137.601562 653.570312 L 137.601562 670.820312 L 120.351562 670.820312 Z M 120.351562 653.570312 " clip-rule="nonzero"/></clipPath><clipPath id="87b5c0c3b5"><path d="M 179.46875 507.871094 L 630.207031 507.871094 L 630.207031 583.621094 L 179.46875 583.621094 Z M 179.46875 507.871094 " clip-rule="nonzero"/></clipPath><clipPath id="5b6773e308"><path d="M 217.46875 507.871094 L 592.523438 507.871094 C 602.601562 507.871094 612.265625 511.875 619.390625 519.003906 C 626.515625 526.128906 630.519531 535.792969 630.519531 545.871094 C 630.519531 555.949219 626.515625 565.613281 619.390625 572.738281 C 612.265625 579.867188 602.601562 583.867188 592.523438 583.867188 L 217.46875 583.867188 C 207.390625 583.867188 197.726562 579.867188 190.601562 572.738281 C 183.472656 565.613281 179.46875 555.949219 179.46875 545.871094 C 179.46875 535.792969 183.472656 526.128906 190.601562 519.003906 C 197.726562 511.875 207.390625 507.871094 217.46875 507.871094 Z M 217.46875 507.871094 " clip-rule="nonzero"/></clipPath><clipPath id="ae42e18d5d"><path d="M 478.605469 212.8125 L 662.355469 212.8125 L 662.355469 298 L 478.605469 298 Z M 478.605469 212.8125 " clip-rule="nonzero"/></clipPath></defs><rect x="-81" width="972" fill="#ffffff" y="-80.999999" height="971.999992" fill-opacity="1"/><rect x="-81" width="972" fill="#6462f1" y="-80.999999" height="971.999992" fill-opacity="1"/><g clip-path="url(#d7ecd4a5ed)"><g clip-path="url(#b064a8ffb5)"><path fill="#fffdf5" d="M 64.128906 64.128906 L 745.871094 64.128906 L 745.871094 745.871094 L 64.128906 745.871094 Z M 64.128906 64.128906 " fill-opacity="1" fill-rule="nonzero"/></g></g><g fill="#6462f1" fill-opacity="1"><g transform="translate(120.35148, 293.735443)"><g><path d="M 32.75 -46.3125 L 17.953125 -77.046875 C 16.828125 -79.335938 15.691406 -81.269531 14.546875 -82.84375 C 13.398438 -84.414062 12.285156 -85.566406 11.203125 -86.296875 C 10.578125 -86.691406 9.566406 -87.1875 8.171875 -87.78125 C 4.835938 -89.175781 3.171875 -90.972656 3.171875 -93.171875 C 3.171875 -96.054688 5.160156 -98.160156 9.140625 -99.484375 C 13.128906 -100.816406 19.488281 -101.484375 28.21875 -101.484375 C 35.15625 -101.484375 39.925781 -100.988281 42.53125 -100 C 45.144531 -99.007812 46.453125 -97.296875 46.453125 -94.859375 C 46.453125 -94.140625 46.269531 -93.421875 45.90625 -92.703125 C 45.550781 -91.984375 45.101562 -91.421875 44.5625 -91.015625 C 44.113281 -90.703125 43.53125 -90.320312 42.8125 -89.875 C 40.914062 -88.75 39.96875 -87.644531 39.96875 -86.5625 C 39.96875 -86.113281 40.054688 -85.609375 40.234375 -85.046875 C 40.421875 -84.484375 40.828125 -83.570312 41.453125 -82.3125 L 52.265625 -59.484375 L 66.5 -80.34375 C 67.40625 -81.65625 68.113281 -82.835938 68.625 -83.890625 C 69.144531 -84.953125 69.40625 -85.707031 69.40625 -86.15625 C 69.40625 -86.96875 68.550781 -88.082031 66.84375 -89.5 C 65.132812 -90.914062 64.28125 -92.34375 64.28125 -93.78125 C 64.28125 -96.4375 65.796875 -98.382812 68.828125 -99.625 C 71.867188 -100.863281 76.722656 -101.484375 83.390625 -101.484375 C 88.878906 -101.484375 92.875 -100.953125 95.375 -99.890625 C 97.875 -98.835938 99.125 -97.160156 99.125 -94.859375 C 99.125 -92.566406 96.507812 -90.296875 91.28125 -88.046875 C 90.476562 -87.679688 89.875 -87.410156 89.46875 -87.234375 C 86.988281 -86.109375 84.710938 -84.664062 82.640625 -82.90625 C 80.566406 -81.15625 78.703125 -79.066406 77.046875 -76.640625 L 55.765625 -46.390625 C 55.492188 -43.503906 55.132812 -39.628906 54.6875 -34.765625 C 53.695312 -24.015625 53.203125 -18.050781 53.203125 -16.875 C 53.203125 -15.570312 53.394531 -14.601562 53.78125 -13.96875 C 54.164062 -13.34375 55.054688 -12.691406 56.453125 -12.015625 C 56.722656 -11.878906 57.148438 -11.675781 57.734375 -11.40625 C 59.617188 -10.601562 60.5625 -9.050781 60.5625 -6.75 C 60.5625 -3.914062 59.0625 -1.96875 56.0625 -0.90625 C 53.070312 0.144531 46.269531 0.671875 35.65625 0.671875 C 28.445312 0.671875 23.582031 0.222656 21.0625 -0.671875 C 18.539062 -1.578125 17.28125 -3.195312 17.28125 -5.53125 C 17.28125 -8.644531 19.082031 -10.941406 22.6875 -12.421875 C 23.582031 -12.785156 24.234375 -13.078125 24.640625 -13.296875 C 26.941406 -14.421875 29.171875 -22.273438 31.328125 -36.859375 C 31.910156 -40.867188 32.382812 -44.019531 32.75 -46.3125 Z M 32.75 -46.3125 "/></g></g></g><g fill="#6462f1" fill-opacity="1"><g transform="translate(200.107854, 293.735443)"><g><path d="M 41.046875 -61.375 C 36.910156 -61.375 33.273438 -58.289062 30.140625 -52.125 C 27.015625 -45.957031 25.453125 -38.441406 25.453125 -29.578125 C 25.453125 -23.140625 26.304688 -18.117188 28.015625 -14.515625 C 29.734375 -10.910156 32.097656 -9.109375 35.109375 -9.109375 C 39.390625 -9.109375 43.046875 -12.304688 46.078125 -18.703125 C 49.117188 -25.097656 50.640625 -33.109375 50.640625 -42.734375 C 50.640625 -48.503906 49.769531 -53.050781 48.03125 -56.375 C 46.300781 -59.707031 43.972656 -61.375 41.046875 -61.375 Z M 0.8125 -29.03125 C 0.8125 -34.65625 1.84375 -39.910156 3.90625 -44.796875 C 5.976562 -49.679688 9.109375 -54.285156 13.296875 -58.609375 C 17.523438 -63.015625 22.34375 -66.421875 27.75 -68.828125 C 33.15625 -71.242188 38.644531 -72.453125 44.21875 -72.453125 C 53.632812 -72.453125 61.15625 -69.679688 66.78125 -64.140625 C 72.40625 -58.609375 75.21875 -51.207031 75.21875 -41.9375 C 75.21875 -36.488281 74.179688 -31.160156 72.109375 -25.953125 C 70.035156 -20.753906 67.066406 -16.066406 63.203125 -11.890625 C 59.148438 -7.429688 54.46875 -4.007812 49.15625 -1.625 C 43.84375 0.757812 38.191406 1.953125 32.203125 1.953125 C 23.023438 1.953125 15.5 -0.957031 9.625 -6.78125 C 3.75 -12.613281 0.8125 -20.03125 0.8125 -29.03125 Z M 0.8125 -29.03125 "/></g></g></g><g fill="#6462f1" fill-opacity="1"><g transform="translate(268.993686, 293.735443)"><g><path d="M 49.5 -10.53125 C 45.488281 -6.707031 40.972656 -3.710938 35.953125 -1.546875 C 30.929688 0.609375 26.035156 1.6875 21.265625 1.6875 C 15.910156 1.6875 11.789062 0.078125 8.90625 -3.140625 C 6.03125 -6.359375 4.59375 -10.984375 4.59375 -17.015625 C 4.59375 -21.378906 5.320312 -27.421875 6.78125 -35.140625 C 8.25 -42.859375 8.984375 -48.25 8.984375 -51.3125 C 8.984375 -52.4375 8.800781 -53.234375 8.4375 -53.703125 C 8.082031 -54.179688 7.25 -54.664062 5.9375 -55.15625 C 5.71875 -55.25 5.378906 -55.382812 4.921875 -55.5625 C 2.453125 -56.46875 1.21875 -57.820312 1.21875 -59.625 C 1.21875 -60.96875 1.820312 -62.164062 3.03125 -63.21875 C 4.25 -64.28125 6.273438 -65.375 9.109375 -66.5 C 14.109375 -68.488281 18.046875 -69.910156 20.921875 -70.765625 C 23.804688 -71.617188 26.015625 -72.046875 27.546875 -72.046875 C 29.660156 -72.046875 31.222656 -71.46875 32.234375 -70.3125 C 33.253906 -69.164062 33.765625 -67.359375 33.765625 -64.890625 C 33.765625 -61.460938 32.75 -55.101562 30.71875 -45.8125 C 28.695312 -36.519531 27.6875 -29.171875 27.6875 -23.765625 C 27.6875 -20.617188 28.15625 -18.332031 29.09375 -16.90625 C 30.039062 -15.488281 31.597656 -14.78125 33.765625 -14.78125 C 38.671875 -14.78125 42.40625 -17.3125 44.96875 -22.375 C 47.53125 -27.445312 49.554688 -36.867188 51.046875 -50.640625 C 51.179688 -51.898438 51.335938 -53.675781 51.515625 -55.96875 C 51.921875 -61.332031 52.6875 -64.664062 53.8125 -65.96875 C 54.9375 -67.269531 57.300781 -68.515625 60.90625 -69.703125 C 64.507812 -70.898438 68.039062 -71.5 71.5 -71.5 C 73.53125 -71.5 74.984375 -71.148438 75.859375 -70.453125 C 76.734375 -69.753906 77.171875 -68.617188 77.171875 -67.046875 C 77.171875 -66.097656 76.734375 -62.976562 75.859375 -57.6875 C 74.984375 -52.40625 74.273438 -47.828125 73.734375 -43.953125 C 72.921875 -38.421875 72.273438 -33.378906 71.796875 -28.828125 C 71.328125 -24.285156 71.09375 -21.359375 71.09375 -20.046875 C 71.09375 -18.609375 71.328125 -17.628906 71.796875 -17.109375 C 72.273438 -16.597656 73.144531 -16.34375 74.40625 -16.34375 C 74.632812 -16.34375 74.972656 -16.363281 75.421875 -16.40625 C 75.867188 -16.445312 76.226562 -16.46875 76.5 -16.46875 C 77.488281 -16.46875 78.21875 -16.253906 78.6875 -15.828125 C 79.164062 -15.398438 79.40625 -14.738281 79.40625 -13.84375 C 79.40625 -12.269531 78.894531 -10.757812 77.875 -9.3125 C 76.863281 -7.875 75.328125 -6.476562 73.265625 -5.125 C 69.835938 -2.875 66.726562 -1.175781 63.9375 -0.03125 C 61.144531 1.113281 58.738281 1.6875 56.71875 1.6875 C 54.601562 1.6875 53.050781 0.921875 52.0625 -0.609375 C 51.070312 -2.140625 50.21875 -5.445312 49.5 -10.53125 Z M 49.5 -10.53125 "/></g></g></g><g fill="#6462f1" fill-opacity="1"><g transform="translate(342.673372, 293.735443)"><g><path d="M 36.265625 -88.109375 C 36.265625 -84.648438 35.429688 -80.878906 33.765625 -76.796875 C 32.097656 -72.722656 29.644531 -68.367188 26.40625 -63.734375 C 23.5625 -59.679688 21.460938 -57.082031 20.109375 -55.9375 C 18.765625 -54.789062 17.414062 -54.21875 16.0625 -54.21875 C 15.03125 -54.21875 14.140625 -54.519531 13.390625 -55.125 C 12.648438 -55.738281 12.28125 -56.445312 12.28125 -57.25 C 12.28125 -57.976562 13.113281 -59.398438 14.78125 -61.515625 C 16.039062 -63.085938 17.007812 -64.390625 17.6875 -65.421875 C 18.726562 -66.910156 19.5625 -68.472656 20.1875 -70.109375 C 20.820312 -71.753906 21.140625 -73.097656 21.140625 -74.140625 C 21.140625 -74.816406 21.046875 -75.378906 20.859375 -75.828125 C 20.679688 -76.273438 20.390625 -76.585938 19.984375 -76.765625 C 19.804688 -76.859375 19.492188 -76.992188 19.046875 -77.171875 C 14.003906 -79.242188 11.484375 -82.644531 11.484375 -87.375 C 11.484375 -91.695312 12.765625 -95.273438 15.328125 -98.109375 C 17.890625 -100.941406 21.128906 -102.359375 25.046875 -102.359375 C 28.472656 -102.359375 31.195312 -101.070312 33.21875 -98.5 C 35.25 -95.9375 36.265625 -92.472656 36.265625 -88.109375 Z M 36.265625 -88.109375 "/></g></g></g><g fill="#6462f1" fill-opacity="1"><g transform="translate(372.533291, 293.735443)"><g><path d="M 24.03125 -71.78125 C 25.25 -71.78125 26.25 -71.25 27.03125 -70.1875 C 27.820312 -69.125 28.625 -67.15625 29.4375 -64.28125 C 29.800781 -63.113281 30.117188 -61.832031 30.390625 -60.4375 C 30.660156 -59.039062 30.859375 -58.34375 30.984375 -58.34375 C 31.117188 -58.34375 31.796875 -59.082031 33.015625 -60.5625 C 34.234375 -62.050781 35.445312 -63.425781 36.65625 -64.6875 C 38.375 -66.570312 40.378906 -67.988281 42.671875 -68.9375 C 44.960938 -69.882812 47.503906 -70.359375 50.296875 -70.359375 C 54.347656 -70.359375 57.488281 -69.21875 59.71875 -66.9375 C 61.945312 -64.664062 63.0625 -61.4375 63.0625 -57.25 C 63.0625 -53.15625 62.125 -49.9375 60.25 -47.59375 C 58.382812 -45.257812 55.8125 -44.09375 52.53125 -44.09375 C 50.957031 -44.09375 49.648438 -44.296875 48.609375 -44.703125 C 47.578125 -45.109375 46.722656 -45.738281 46.046875 -46.59375 C 45.554688 -47.21875 44.992188 -48.207031 44.359375 -49.5625 C 43.140625 -52.125 41.722656 -53.40625 40.109375 -53.40625 C 37.085938 -53.40625 34.789062 -51.03125 33.21875 -46.28125 C 31.644531 -41.53125 30.070312 -30.941406 28.5 -14.515625 C 28.445312 -14.242188 28.398438 -13.882812 28.359375 -13.4375 C 27.722656 -6.550781 26.617188 -2.632812 25.046875 -1.6875 C 23.296875 -0.695312 20.976562 0.15625 18.09375 0.875 C 15.21875 1.59375 12.453125 1.953125 9.796875 1.953125 C 7.722656 1.953125 6.257812 1.613281 5.40625 0.9375 C 4.550781 0.269531 4.125 -0.921875 4.125 -2.640625 C 4.125 -4.296875 5.113281 -10.007812 7.09375 -19.78125 L 7.625 -22.421875 C 8.707031 -27.773438 9.550781 -32.742188 10.15625 -37.328125 C 10.769531 -41.921875 11.078125 -45.4375 11.078125 -47.875 C 11.078125 -50.21875 10.816406 -51.835938 10.296875 -52.734375 C 9.773438 -53.628906 8.726562 -54.394531 7.15625 -55.03125 C 6.75 -55.207031 6.140625 -55.429688 5.328125 -55.703125 C 2.671875 -56.597656 1.34375 -57.859375 1.34375 -59.484375 C 1.34375 -60.785156 1.972656 -62.019531 3.234375 -63.1875 C 4.492188 -64.363281 6.5 -65.5625 9.25 -66.78125 C 12.445312 -68.21875 15.492188 -69.410156 18.390625 -70.359375 C 21.296875 -71.304688 23.175781 -71.78125 24.03125 -71.78125 Z M 24.03125 -71.78125 "/></g></g></g><g fill="#6462f1" fill-opacity="1"><g transform="translate(426.767521, 293.735443)"><g><path d="M 26 -26.265625 C 26.351562 -21.265625 27.585938 -17.570312 29.703125 -15.1875 C 31.816406 -12.800781 34.925781 -11.609375 39.03125 -11.609375 C 40.78125 -11.609375 42.476562 -11.890625 44.125 -12.453125 C 45.769531 -13.015625 47.738281 -14.019531 50.03125 -15.46875 C 51.289062 -16.269531 52.863281 -17.414062 54.75 -18.90625 C 56.644531 -20.394531 57.929688 -21.140625 58.609375 -21.140625 C 59.773438 -21.140625 60.921875 -20.5625 62.046875 -19.40625 C 63.171875 -18.257812 63.734375 -17.035156 63.734375 -15.734375 C 63.734375 -14.609375 63.363281 -13.46875 62.625 -12.3125 C 61.882812 -11.164062 60.789062 -10.054688 59.34375 -8.984375 C 54.625 -5.378906 49.71875 -2.65625 44.625 -0.8125 C 39.539062 1.03125 34.34375 1.953125 29.03125 1.953125 C 20.34375 1.953125 13.488281 -0.5 8.46875 -5.40625 C 3.445312 -10.3125 0.9375 -16.992188 0.9375 -25.453125 C 0.9375 -32.066406 2.285156 -38.445312 4.984375 -44.59375 C 7.691406 -50.738281 11.476562 -56.019531 16.34375 -60.4375 C 20.394531 -64.125 25.242188 -67.046875 30.890625 -69.203125 C 36.535156 -71.367188 42.195312 -72.453125 47.875 -72.453125 C 54.625 -72.453125 59.921875 -70.882812 63.765625 -67.75 C 67.617188 -64.625 69.546875 -60.335938 69.546875 -54.890625 C 69.546875 -46.785156 65.640625 -39.988281 57.828125 -34.5 C 50.015625 -29.007812 40.054688 -26.265625 27.953125 -26.265625 Z M 41.59375 -61.515625 C 39.882812 -61.515625 38.273438 -61.03125 36.765625 -60.0625 C 35.253906 -59.09375 33.734375 -57.550781 32.203125 -55.4375 C 30.585938 -53.132812 29.21875 -50.335938 28.09375 -47.046875 C 26.96875 -43.765625 26.40625 -41.023438 26.40625 -38.828125 C 26.40625 -38.242188 26.773438 -37.757812 27.515625 -37.375 C 28.253906 -36.988281 29.1875 -36.796875 30.3125 -36.796875 C 34.539062 -36.796875 38.421875 -38.648438 41.953125 -42.359375 C 45.492188 -46.078125 47.265625 -50.253906 47.265625 -54.890625 C 47.265625 -57.097656 46.789062 -58.753906 45.84375 -59.859375 C 44.894531 -60.960938 43.476562 -61.515625 41.59375 -61.515625 Z M 41.59375 -61.515625 "/></g></g></g><g fill="#6462f1" fill-opacity="1"><g transform="translate(212.510614, 410.885243)"><g><path d="M 31.390625 -101.625 C 39.628906 -101.625 45.117188 -101.113281 47.859375 -100.09375 C 50.609375 -99.082031 51.984375 -97.203125 51.984375 -94.453125 C 51.984375 -93.460938 51.722656 -92.539062 51.203125 -91.6875 C 50.691406 -90.832031 49.894531 -90 48.8125 -89.1875 C 48.363281 -88.832031 47.328125 -88.296875 45.703125 -87.578125 C 44.085938 -86.859375 43.054688 -86.023438 42.609375 -85.078125 C 41.796875 -83.234375 40.554688 -76.910156 38.890625 -66.109375 L 38.828125 -65.703125 C 37.160156 -54.304688 35.804688 -44.039062 34.765625 -34.90625 C 33.734375 -25.769531 33.21875 -19.757812 33.21875 -16.875 C 33.21875 -15.613281 33.34375 -14.722656 33.59375 -14.203125 C 33.84375 -13.691406 34.484375 -13.144531 35.515625 -12.5625 C 35.785156 -12.375 36.191406 -12.148438 36.734375 -11.890625 C 38.804688 -10.710938 39.84375 -9 39.84375 -6.75 C 39.84375 -4.007812 38.050781 -2.085938 34.46875 -0.984375 C 30.882812 0.117188 24.320312 0.671875 14.78125 0.671875 C 7.539062 0.671875 2.601562 0.203125 -0.03125 -0.734375 C -2.664062 -1.679688 -3.984375 -3.328125 -3.984375 -5.671875 C -3.984375 -6.835938 -3.757812 -7.867188 -3.3125 -8.765625 C -2.863281 -9.671875 -2.164062 -10.441406 -1.21875 -11.078125 C -0.675781 -11.429688 0.425781 -11.9375 2.09375 -12.59375 C 3.757812 -13.25 4.90625 -13.976562 5.53125 -14.78125 C 5.9375 -15.414062 6.382812 -16.566406 6.875 -18.234375 C 7.375 -19.898438 7.894531 -22.082031 8.4375 -24.78125 C 10.820312 -36.664062 12.609375 -47.351562 13.796875 -56.84375 C 14.992188 -66.34375 15.59375 -74.492188 15.59375 -81.296875 C 15.59375 -83.503906 15.4375 -84.921875 15.125 -85.546875 C 14.8125 -86.179688 14.113281 -86.832031 13.03125 -87.5 C 12.757812 -87.6875 12.445312 -87.890625 12.09375 -88.109375 C 9.382812 -89.734375 8.03125 -91.515625 8.03125 -93.453125 C 8.03125 -96.421875 9.71875 -98.523438 13.09375 -99.765625 C 16.46875 -101.003906 22.566406 -101.625 31.390625 -101.625 Z M 31.390625 -101.625 "/></g></g></g><g fill="#6462f1" fill-opacity="1"><g transform="translate(257.29906, 410.885243)"><g><path d="M 29.4375 -65.296875 C 29.75 -63.671875 30.03125 -62.539062 30.28125 -61.90625 C 30.53125 -61.28125 30.8125 -60.96875 31.125 -60.96875 C 31.394531 -60.96875 32.441406 -61.640625 34.265625 -62.984375 C 36.085938 -64.335938 37.851562 -65.46875 39.5625 -66.375 C 42.894531 -68.125 46.113281 -69.4375 49.21875 -70.3125 C 52.320312 -71.195312 55.269531 -71.640625 58.0625 -71.640625 C 63.78125 -71.640625 68.023438 -70.019531 70.796875 -66.78125 C 73.566406 -63.539062 74.953125 -58.609375 74.953125 -51.984375 C 74.953125 -47.078125 74.304688 -41.046875 73.015625 -33.890625 C 71.734375 -26.734375 71.09375 -22.117188 71.09375 -20.046875 C 71.09375 -18.609375 71.328125 -17.628906 71.796875 -17.109375 C 72.273438 -16.597656 73.144531 -16.34375 74.40625 -16.34375 C 74.632812 -16.34375 74.972656 -16.363281 75.421875 -16.40625 C 75.867188 -16.445312 76.226562 -16.46875 76.5 -16.46875 C 77.488281 -16.46875 78.21875 -16.253906 78.6875 -15.828125 C 79.164062 -15.398438 79.40625 -14.738281 79.40625 -13.84375 C 79.40625 -12.21875 78.84375 -10.648438 77.71875 -9.140625 C 76.59375 -7.640625 74.925781 -6.164062 72.71875 -4.71875 C 69.570312 -2.65625 66.285156 -1.03125 62.859375 0.15625 C 59.441406 1.351562 56.335938 1.953125 53.546875 1.953125 C 50.523438 1.953125 48.472656 1.515625 47.390625 0.640625 C 46.316406 -0.234375 45.78125 -1.863281 45.78125 -4.25 C 45.78125 -5.738281 46.410156 -9.789062 47.671875 -16.40625 C 47.847656 -17.351562 48.003906 -18.117188 48.140625 -18.703125 C 49.628906 -26.535156 50.664062 -32.507812 51.25 -36.625 C 51.832031 -40.75 52.125 -43.9375 52.125 -46.1875 C 52.125 -49.25 51.617188 -51.488281 50.609375 -52.90625 C 49.597656 -54.320312 47.988281 -55.03125 45.78125 -55.03125 C 40.875 -55.03125 37.125 -52.441406 34.53125 -47.265625 C 31.945312 -42.085938 30.070312 -33.148438 28.90625 -20.453125 C 28.8125 -19.515625 28.695312 -18.1875 28.5625 -16.46875 C 28.0625 -9.71875 27.207031 -5.601562 26 -4.125 C 24.875 -2.863281 22.5 -1.632812 18.875 -0.4375 C 15.25 0.75 11.726562 1.34375 8.3125 1.34375 C 6.238281 1.34375 4.773438 1.003906 3.921875 0.328125 C 3.066406 -0.335938 2.640625 -1.457031 2.640625 -3.03125 C 2.640625 -4.75 3.359375 -9.34375 4.796875 -16.8125 C 5.609375 -20.820312 6.210938 -24.019531 6.609375 -26.40625 C 7.691406 -32.164062 8.515625 -37.148438 9.078125 -41.359375 C 9.640625 -45.566406 9.921875 -48.660156 9.921875 -50.640625 C 9.921875 -53.160156 8.523438 -54.578125 5.734375 -54.890625 C 5.648438 -54.890625 5.582031 -54.890625 5.53125 -54.890625 C 5.351562 -54.941406 5.082031 -55.007812 4.71875 -55.09375 C 1.125 -56.039062 -0.671875 -57.347656 -0.671875 -59.015625 C -0.671875 -59.960938 -0.335938 -60.863281 0.328125 -61.71875 C 1.003906 -62.570312 2.039062 -63.425781 3.4375 -64.28125 C 4.382812 -64.863281 5.53125 -65.457031 6.875 -66.0625 C 8.226562 -66.675781 10.078125 -67.429688 12.421875 -68.328125 C 15.253906 -69.316406 17.875 -70.113281 20.28125 -70.71875 C 22.695312 -71.332031 24.46875 -71.640625 25.59375 -71.640625 C 26.40625 -71.640625 27.113281 -71.359375 27.71875 -70.796875 C 28.320312 -70.234375 28.71875 -69.5 28.90625 -68.59375 Z M 29.4375 -65.296875 "/></g></g></g><g fill="#6462f1" fill-opacity="1"><g transform="translate(336.928754, 410.885243)"><g><path d="M 30.59375 -36.125 C 30.132812 -33.375 29.78125 -30.941406 29.53125 -28.828125 C 29.289062 -26.710938 29.171875 -24.976562 29.171875 -23.625 C 29.171875 -20.519531 29.867188 -18.132812 31.265625 -16.46875 C 32.660156 -14.8125 34.640625 -13.984375 37.203125 -13.984375 C 42.609375 -13.984375 47.390625 -16.882812 51.546875 -22.6875 C 55.710938 -28.488281 57.796875 -35.535156 57.796875 -43.828125 C 57.796875 -48.597656 57.0625 -53.378906 55.59375 -58.171875 C 54.132812 -62.960938 53.40625 -65.515625 53.40625 -65.828125 C 53.40625 -67.628906 54.191406 -69.023438 55.765625 -70.015625 C 57.347656 -71.003906 59.644531 -71.5 62.65625 -71.5 C 66.4375 -71.5 69.082031 -70.375 70.59375 -68.125 C 72.101562 -65.875 72.859375 -61.78125 72.859375 -55.84375 C 72.859375 -38.550781 68.648438 -24.613281 60.234375 -14.03125 C 51.816406 -3.457031 40.875 1.828125 27.40625 1.828125 C 20.519531 1.828125 15.195312 0.0507812 11.4375 -3.5 C 7.6875 -7.0625 5.8125 -12.0625 5.8125 -18.5 C 5.8125 -21.695312 6.40625 -26.523438 7.59375 -32.984375 C 8.789062 -39.441406 9.390625 -44.25 9.390625 -47.40625 C 9.390625 -49.96875 9.148438 -51.6875 8.671875 -52.5625 C 8.203125 -53.4375 7.066406 -54.171875 5.265625 -54.765625 C 5.128906 -54.804688 4.972656 -54.847656 4.796875 -54.890625 C 1.054688 -56.015625 -0.8125 -57.546875 -0.8125 -59.484375 C -0.8125 -60.703125 -0.148438 -61.925781 1.171875 -63.15625 C 2.503906 -64.394531 4.363281 -65.507812 6.75 -66.5 C 10.9375 -68.257812 15.078125 -69.664062 19.171875 -70.71875 C 23.265625 -71.78125 26.28125 -72.3125 28.21875 -72.3125 C 30.5625 -72.3125 32.269531 -71.757812 33.34375 -70.65625 C 34.425781 -69.550781 34.96875 -67.765625 34.96875 -65.296875 C 34.96875 -64.441406 34.890625 -63.28125 34.734375 -61.8125 C 34.578125 -60.351562 34.34375 -58.65625 34.03125 -56.71875 Z M 30.59375 -36.125 "/></g></g></g><g fill="#6462f1" fill-opacity="1"><g transform="translate(410.481479, 410.885243)"><g><path d="M 38.15625 -92.234375 C 38.15625 -88.898438 36.625 -86.039062 33.5625 -83.65625 C 30.5 -81.269531 26.785156 -80.078125 22.421875 -80.078125 C 18.640625 -80.078125 15.664062 -80.929688 13.5 -82.640625 C 11.34375 -84.347656 10.265625 -86.664062 10.265625 -89.59375 C 10.265625 -93.289062 11.804688 -96.34375 14.890625 -98.75 C 17.972656 -101.15625 21.898438 -102.359375 26.671875 -102.359375 C 30.140625 -102.359375 32.921875 -101.421875 35.015625 -99.546875 C 37.109375 -97.679688 38.15625 -95.242188 38.15625 -92.234375 Z M 2.765625 -4.25 C 2.765625 -5.644531 3.484375 -10.035156 4.921875 -17.421875 C 5.648438 -21.109375 6.210938 -24.054688 6.609375 -26.265625 C 7.515625 -31.171875 8.203125 -35.515625 8.671875 -39.296875 C 9.148438 -43.078125 9.390625 -45.9375 9.390625 -47.875 C 9.390625 -50.164062 9.128906 -51.757812 8.609375 -52.65625 C 8.085938 -53.5625 6.925781 -54.265625 5.125 -54.765625 C 4.988281 -54.804688 4.832031 -54.847656 4.65625 -54.890625 C 0.925781 -56.015625 -0.9375 -57.546875 -0.9375 -59.484375 C -0.9375 -60.878906 -0.148438 -62.21875 1.421875 -63.5 C 2.992188 -64.78125 5.421875 -66.050781 8.703125 -67.3125 C 12.847656 -68.9375 16.84375 -70.195312 20.6875 -71.09375 C 24.539062 -72 27.679688 -72.453125 30.109375 -72.453125 C 31.460938 -72.453125 32.566406 -71.976562 33.421875 -71.03125 C 34.273438 -70.082031 34.703125 -68.84375 34.703125 -67.3125 C 34.703125 -66.457031 34.285156 -63.597656 33.453125 -58.734375 C 32.617188 -53.878906 31.929688 -49.5625 31.390625 -45.78125 C 30.398438 -39.070312 29.625 -33.410156 29.0625 -28.796875 C 28.5 -24.179688 28.21875 -21.265625 28.21875 -20.046875 C 28.21875 -18.566406 28.453125 -17.597656 28.921875 -17.140625 C 29.398438 -16.691406 30.316406 -16.46875 31.671875 -16.46875 C 31.847656 -16.46875 32.148438 -16.488281 32.578125 -16.53125 C 33.003906 -16.582031 33.304688 -16.609375 33.484375 -16.609375 C 35.109375 -16.609375 36.3125 -16.316406 37.09375 -15.734375 C 37.882812 -15.148438 38.28125 -14.296875 38.28125 -13.171875 C 38.28125 -11.722656 37.707031 -10.289062 36.5625 -8.875 C 35.414062 -7.457031 33.738281 -6.070312 31.53125 -4.71875 C 28.15625 -2.695312 24.5 -1.082031 20.5625 0.125 C 16.625 1.34375 13.078125 1.953125 9.921875 1.953125 C 7.453125 1.953125 5.640625 1.445312 4.484375 0.4375 C 3.335938 -0.570312 2.765625 -2.132812 2.765625 -4.25 Z M 2.765625 -4.25 "/></g></g></g><g fill="#6462f1" fill-opacity="1"><g transform="translate(446.964734, 410.885243)"><g><path d="M 11.75 -60.03125 L 2.90625 -60.03125 C 2.09375 -60.03125 1.539062 -60.128906 1.25 -60.328125 C 0.957031 -60.535156 0.8125 -60.882812 0.8125 -61.375 L 0.8125 -62.25 L 1.21875 -64.6875 C 1.757812 -67.789062 5.675781 -69.953125 12.96875 -71.171875 L 13.4375 -71.234375 C 13.570312 -71.816406 13.753906 -72.628906 13.984375 -73.671875 C 15.109375 -78.578125 15.9375 -81.679688 16.46875 -82.984375 C 16.789062 -83.796875 17.351562 -84.492188 18.15625 -85.078125 C 18.96875 -85.660156 20.296875 -86.203125 22.140625 -86.703125 C 23.222656 -87.015625 24.785156 -87.304688 26.828125 -87.578125 C 28.878906 -87.847656 30.894531 -87.984375 32.875 -87.984375 C 34.363281 -87.984375 35.410156 -87.734375 36.015625 -87.234375 C 36.628906 -86.742188 36.9375 -85.910156 36.9375 -84.734375 C 36.9375 -84.285156 36.921875 -83.945312 36.890625 -83.71875 C 36.867188 -83.5 36.835938 -83.253906 36.796875 -82.984375 L 35.25 -70.359375 L 50.640625 -70.359375 C 51.585938 -70.359375 52.179688 -70.265625 52.421875 -70.078125 C 52.671875 -69.898438 52.796875 -69.539062 52.796875 -69 L 52.796875 -68.203125 L 52.125 -62.59375 C 51.988281 -61.6875 51.695312 -61.03125 51.25 -60.625 C 50.800781 -60.226562 50.125 -60.03125 49.21875 -60.03125 L 35.78125 -60.03125 C 35.019531 -60.03125 34.476562 -59.878906 34.15625 -59.578125 C 33.84375 -59.285156 33.617188 -58.46875 33.484375 -57.125 L 28.625 -23.625 C 28.539062 -23.09375 28.472656 -22.53125 28.421875 -21.9375 C 28.378906 -21.351562 28.359375 -20.632812 28.359375 -19.78125 C 28.359375 -17.53125 28.988281 -15.804688 30.25 -14.609375 C 31.507812 -13.421875 33.351562 -12.828125 35.78125 -12.828125 C 37.539062 -12.828125 39.65625 -13.265625 42.125 -14.140625 C 44.601562 -15.023438 46.226562 -15.46875 47 -15.46875 C 47.988281 -15.46875 48.785156 -15.117188 49.390625 -14.421875 C 49.992188 -13.722656 50.296875 -12.832031 50.296875 -11.75 C 50.296875 -10.625 49.910156 -9.539062 49.140625 -8.5 C 48.378906 -7.46875 47.210938 -6.476562 45.640625 -5.53125 C 42.222656 -3.414062 38.113281 -1.660156 33.3125 -0.265625 C 28.519531 1.128906 24.144531 1.828125 20.1875 1.828125 C 15.238281 1.828125 11.46875 0.578125 8.875 -1.921875 C 6.289062 -4.421875 5 -8.054688 5 -12.828125 C 5 -14.671875 5.40625 -18.363281 6.21875 -23.90625 L 6.21875 -24.03125 Z M 11.75 -60.03125 "/></g></g></g><g fill="#6462f1" fill-opacity="1"><g transform="translate(493.846348, 410.885243)"><g><path d="M 26 -26.265625 C 26.351562 -21.265625 27.585938 -17.570312 29.703125 -15.1875 C 31.816406 -12.800781 34.925781 -11.609375 39.03125 -11.609375 C 40.78125 -11.609375 42.476562 -11.890625 44.125 -12.453125 C 45.769531 -13.015625 47.738281 -14.019531 50.03125 -15.46875 C 51.289062 -16.269531 52.863281 -17.414062 54.75 -18.90625 C 56.644531 -20.394531 57.929688 -21.140625 58.609375 -21.140625 C 59.773438 -21.140625 60.921875 -20.5625 62.046875 -19.40625 C 63.171875 -18.257812 63.734375 -17.035156 63.734375 -15.734375 C 63.734375 -14.609375 63.363281 -13.46875 62.625 -12.3125 C 61.882812 -11.164062 60.789062 -10.054688 59.34375 -8.984375 C 54.625 -5.378906 49.71875 -2.65625 44.625 -0.8125 C 39.539062 1.03125 34.34375 1.953125 29.03125 1.953125 C 20.34375 1.953125 13.488281 -0.5 8.46875 -5.40625 C 3.445312 -10.3125 0.9375 -16.992188 0.9375 -25.453125 C 0.9375 -32.066406 2.285156 -38.445312 4.984375 -44.59375 C 7.691406 -50.738281 11.476562 -56.019531 16.34375 -60.4375 C 20.394531 -64.125 25.242188 -67.046875 30.890625 -69.203125 C 36.535156 -71.367188 42.195312 -72.453125 47.875 -72.453125 C 54.625 -72.453125 59.921875 -70.882812 63.765625 -67.75 C 67.617188 -64.625 69.546875 -60.335938 69.546875 -54.890625 C 69.546875 -46.785156 65.640625 -39.988281 57.828125 -34.5 C 50.015625 -29.007812 40.054688 -26.265625 27.953125 -26.265625 Z M 41.59375 -61.515625 C 39.882812 -61.515625 38.273438 -61.03125 36.765625 -60.0625 C 35.253906 -59.09375 33.734375 -57.550781 32.203125 -55.4375 C 30.585938 -53.132812 29.21875 -50.335938 28.09375 -47.046875 C 26.96875 -43.765625 26.40625 -41.023438 26.40625 -38.828125 C 26.40625 -38.242188 26.773438 -37.757812 27.515625 -37.375 C 28.253906 -36.988281 29.1875 -36.796875 30.3125 -36.796875 C 34.539062 -36.796875 38.421875 -38.648438 41.953125 -42.359375 C 45.492188 -46.078125 47.265625 -50.253906 47.265625 -54.890625 C 47.265625 -57.097656 46.789062 -58.753906 45.84375 -59.859375 C 44.894531 -60.960938 43.476562 -61.515625 41.59375 -61.515625 Z M 41.59375 -61.515625 "/></g></g></g><g fill="#6462f1" fill-opacity="1"><g transform="translate(563.55033, 410.885243)"><g><path d="M 73.265625 -45.78125 C 72.316406 -39.03125 71.546875 -33.320312 70.953125 -28.65625 C 70.367188 -24 70.078125 -21.128906 70.078125 -20.046875 C 70.078125 -18.609375 70.3125 -17.628906 70.78125 -17.109375 C 71.257812 -16.597656 72.128906 -16.34375 73.390625 -16.34375 C 73.660156 -16.34375 74 -16.363281 74.40625 -16.40625 C 74.8125 -16.445312 75.128906 -16.46875 75.359375 -16.46875 C 76.390625 -16.46875 77.148438 -16.253906 77.640625 -15.828125 C 78.140625 -15.398438 78.390625 -14.738281 78.390625 -13.84375 C 78.390625 -12.3125 77.867188 -10.8125 76.828125 -9.34375 C 75.796875 -7.882812 74.242188 -6.476562 72.171875 -5.125 C 68.847656 -2.96875 65.789062 -1.316406 63 -0.171875 C 60.207031 0.972656 57.773438 1.546875 55.703125 1.546875 C 54.265625 1.546875 53.171875 1.273438 52.421875 0.734375 C 51.679688 0.203125 50.929688 -0.875 50.171875 -2.5 C 49.535156 -3.9375 49.09375 -5.53125 48.84375 -7.28125 C 48.601562 -9.039062 48.320312 -9.921875 48 -9.921875 C 47.601562 -9.921875 46.546875 -9.316406 44.828125 -8.109375 C 43.484375 -7.160156 42.359375 -6.394531 41.453125 -5.8125 C 36.910156 -2.925781 33.128906 -0.910156 30.109375 0.234375 C 27.097656 1.378906 24.238281 1.953125 21.53125 1.953125 C 15.5 1.953125 10.679688 -0.25 7.078125 -4.65625 C 3.484375 -9.070312 1.6875 -14.992188 1.6875 -22.421875 C 1.6875 -27.367188 2.441406 -32.335938 3.953125 -37.328125 C 5.460938 -42.328125 7.65625 -47.125 10.53125 -51.71875 C 14.582031 -58.15625 19.382812 -63.238281 24.9375 -66.96875 C 30.5 -70.707031 36.003906 -72.578125 41.453125 -72.578125 C 43.972656 -72.578125 46.707031 -72.023438 49.65625 -70.921875 C 52.601562 -69.828125 54.304688 -69.28125 54.765625 -69.28125 C 55.523438 -69.28125 56.148438 -70.445312 56.640625 -72.78125 C 57.140625 -75.125 57.390625 -78.097656 57.390625 -81.703125 C 57.390625 -83.953125 56.109375 -85.4375 53.546875 -86.15625 C 53.359375 -86.195312 53.203125 -86.242188 53.078125 -86.296875 C 52.941406 -86.335938 52.710938 -86.40625 52.390625 -86.5 C 48.523438 -87.570312 46.59375 -89.078125 46.59375 -91.015625 C 46.59375 -92.546875 47.253906 -93.847656 48.578125 -94.921875 C 49.910156 -96.003906 52.101562 -97.046875 55.15625 -98.046875 C 59.476562 -99.429688 63.585938 -100.539062 67.484375 -101.375 C 71.378906 -102.207031 74.179688 -102.625 75.890625 -102.625 C 77.285156 -102.625 78.398438 -102.128906 79.234375 -101.140625 C 80.066406 -100.148438 80.484375 -98.847656 80.484375 -97.234375 C 80.484375 -96.242188 80.359375 -94.734375 80.109375 -92.703125 C 79.859375 -90.679688 79.507812 -88.226562 79.0625 -85.34375 Z M 53.203125 -49.890625 C 53.203125 -53.273438 52.535156 -55.921875 51.203125 -57.828125 C 49.878906 -59.742188 48.070312 -60.703125 45.78125 -60.703125 C 43.84375 -60.703125 41.972656 -60.125 40.171875 -58.96875 C 38.367188 -57.820312 36.546875 -56.054688 34.703125 -53.671875 C 31.828125 -49.804688 29.453125 -45.101562 27.578125 -39.5625 C 25.710938 -34.03125 24.78125 -28.898438 24.78125 -24.171875 C 24.78125 -20.890625 25.441406 -18.300781 26.765625 -16.40625 C 28.097656 -14.519531 29.910156 -13.578125 32.203125 -13.578125 C 34.097656 -13.578125 35.957031 -14.160156 37.78125 -15.328125 C 39.601562 -16.492188 41.4375 -18.296875 43.28125 -20.734375 C 46.164062 -24.460938 48.539062 -29.070312 50.40625 -34.5625 C 52.269531 -40.0625 53.203125 -45.171875 53.203125 -49.890625 Z M 53.203125 -49.890625 "/></g></g></g><g fill="#6462f1" fill-opacity="1"><g transform="translate(642.234727, 410.885243)"><g><path d="M 20.859375 -32.75 C 18.523438 -32.75 16.769531 -34.84375 15.59375 -39.03125 C 14.425781 -43.21875 13.84375 -49.519531 13.84375 -57.9375 C 13.84375 -72.46875 15.289062 -83.503906 18.1875 -91.046875 C 21.09375 -98.585938 25.359375 -102.359375 30.984375 -102.359375 C 34.003906 -102.359375 36.300781 -101.097656 37.875 -98.578125 C 39.445312 -96.054688 40.234375 -92.410156 40.234375 -87.640625 C 40.234375 -82.554688 39.476562 -76.554688 37.96875 -69.640625 C 36.46875 -62.734375 34.273438 -55.320312 31.390625 -47.40625 C 29.234375 -41.5 27.429688 -37.578125 25.984375 -35.640625 C 24.546875 -33.710938 22.835938 -32.75 20.859375 -32.75 Z M 4.71875 -11.203125 C 4.71875 -14.941406 5.96875 -18.0625 8.46875 -20.5625 C 10.96875 -23.0625 14.085938 -24.3125 17.828125 -24.3125 C 21.515625 -24.3125 24.628906 -23.050781 27.171875 -20.53125 C 29.710938 -18.007812 30.984375 -14.898438 30.984375 -11.203125 C 30.984375 -7.515625 29.710938 -4.398438 27.171875 -1.859375 C 24.628906 0.679688 21.515625 1.953125 17.828125 1.953125 C 14.128906 1.953125 11.019531 0.679688 8.5 -1.859375 C 5.976562 -4.398438 4.71875 -7.515625 4.71875 -11.203125 Z M 4.71875 -11.203125 "/></g></g></g><g clip-path="url(#4cddb1e50e)"><path fill="#005ae0" d="M 237.09375 405.324219 C 235.90625 406.066406 235.03125 407.09375 233.53125 407.585938 C 226.140625 410.007812 220.410156 414.507812 218.058594 422.144531 C 216.378906 427.628906 215.257812 433.292969 214.207031 438.960938 C 213.894531 440.640625 212.996094 441.648438 211.988281 442.722656 C 211.878906 442.835938 211.003906 442.542969 210.9375 442.296875 C 210.734375 441.535156 210.714844 440.707031 210.667969 439.902344 C 210.265625 432.621094 209.683594 425.34375 207.085938 418.449219 C 205.652344 414.664062 203.726562 411.082031 199.941406 409.175781 C 197.589844 407.992188 194.925781 407.476562 192.394531 406.667969 C 191.96875 406.535156 191.5 406.492188 191.097656 406.3125 C 190.292969 405.976562 190.066406 404.585938 190.785156 404.09375 C 191.253906 403.78125 191.859375 403.46875 192.394531 403.46875 C 195.664062 403.46875 198.578125 402.214844 201.488281 400.980469 C 205.945312 399.101562 209.214844 396.054688 210.9375 391.417969 C 212.59375 386.941406 213.960938 382.417969 214.183594 377.601562 C 214.230469 376.484375 215.28125 375.65625 216.421875 375.746094 C 217.699219 375.835938 218.238281 376.417969 218.214844 377.761719 C 218.058594 382.910156 218.84375 387.972656 219.894531 393.011719 C 220.65625 396.660156 222.515625 399.792969 225.761719 401.652344 C 228.472656 403.199219 231.449219 404.429688 234.742188 404.429688 C 235.546875 404.429688 236.351562 404.722656 237.136719 404.878906 C 237.113281 404.96875 237.09375 405.148438 237.09375 405.324219 Z M 214.992188 388.375 C 212.660156 395.832031 207.464844 400.847656 201.152344 405.191406 C 204.488281 406.648438 206.792969 409.109375 208.496094 412.132812 C 210.289062 415.3125 211.339844 418.785156 211.921875 422.390625 C 212.078125 423.328125 212.214844 424.269531 212.371094 425.210938 C 212.503906 426.105469 212.640625 426.980469 212.773438 427.875 C 212.886719 427.898438 212.996094 427.921875 213.132812 427.964844 C 214.25 418.628906 218.617188 411.484375 227.417969 407.117188 C 220.902344 404.632812 217.09375 400.332031 215.910156 393.839844 C 215.574219 392.023438 215.304688 390.1875 214.992188 388.375 Z M 214.992188 388.375 " fill-opacity="1" fill-rule="nonzero"/></g><g clip-path="url(#18f7bf5808)"><path fill="#005ae0" d="M 273.300781 434.972656 C 272.003906 435.871094 270.792969 436.988281 269.382812 437.59375 C 265.574219 439.207031 263.203125 441.894531 262.308594 445.925781 C 261.613281 449.015625 260.941406 452.105469 260.292969 455.21875 C 260.132812 455.957031 259.957031 456.515625 259.148438 456.875 C 258.679688 457.074219 258.386719 457.703125 257.695312 458.53125 C 257.46875 457.324219 257.222656 456.402344 257.15625 455.484375 C 256.976562 452.550781 256.796875 449.621094 255.523438 446.886719 C 253.597656 442.789062 250.730469 439.902344 246.070312 439.160156 C 245.109375 439.003906 244.503906 438.601562 244.4375 437.550781 C 244.347656 436.453125 245.132812 436.136719 245.894531 435.890625 C 247.148438 435.511719 248.445312 435.265625 249.722656 434.953125 C 253.796875 433.964844 256.53125 431.703125 257.089844 427.339844 C 257.179688 426.578125 257.335938 425.816406 257.449219 425.054688 C 257.695312 423.351562 258.140625 422.859375 259.777344 422.570312 C 260.605469 422.433594 261.1875 422.65625 261.230469 423.644531 C 261.253906 424.226562 261.34375 424.808594 261.386719 425.390625 C 261.746094 430.808594 265.910156 434.054688 271.308594 434.101562 C 271.9375 434.101562 272.5625 434.28125 273.191406 434.390625 C 273.210938 434.59375 273.257812 434.773438 273.300781 434.972656 Z M 267.34375 436.226562 C 263.3125 435.511719 261.074219 432.871094 259.394531 429.355469 C 257.714844 433.027344 254.871094 435.332031 251.648438 437.371094 C 255.789062 439.742188 257.917969 443.371094 259.285156 447.714844 C 260.449219 442.855469 262.507812 438.667969 267.34375 436.226562 Z M 267.34375 436.226562 " fill-opacity="1" fill-rule="nonzero"/></g><g clip-path="url(#156738670e)"><path fill="#005ae0" d="M 256.261719 355.410156 C 255.410156 355.882812 254.605469 356.441406 253.707031 356.777344 C 252.027344 357.40625 250.753906 358.457031 250.257812 360.160156 C 249.566406 362.578125 249.074219 365.039062 248.421875 367.480469 C 248.222656 368.242188 247.773438 368.9375 247.4375 369.652344 C 247.214844 369.652344 246.988281 369.652344 246.765625 369.652344 C 246.519531 368.980469 246.207031 368.308594 246.050781 367.59375 C 245.691406 366.027344 245.578125 364.371094 245.085938 362.847656 C 244.234375 360.203125 242.332031 358.59375 239.621094 357.851562 C 239.175781 357.71875 238.503906 357.179688 238.503906 356.84375 C 238.503906 356.351562 238.996094 355.816406 239.375 355.367188 C 239.601562 355.121094 240.003906 355.007812 240.339844 354.917969 C 243.542969 354 245.332031 351.875 245.980469 348.628906 C 246.09375 348.113281 246.742188 347.6875 247.148438 347.238281 C 247.59375 347.664062 248.355469 348.042969 248.445312 348.539062 C 249.164062 352.097656 251.421875 353.84375 254.871094 354.335938 C 255.320312 354.40625 255.746094 354.71875 256.171875 354.917969 C 256.214844 355.121094 256.238281 355.277344 256.261719 355.410156 Z M 247.234375 353.105469 C 246.050781 354.335938 244.75 355.679688 243.652344 356.824219 C 244.773438 358.367188 246.140625 360.25 247.503906 362.152344 C 248.019531 359.734375 249.496094 357.695312 251.265625 356.261719 C 249.765625 355.097656 248.378906 354.023438 247.234375 353.105469 Z M 247.234375 353.105469 " fill-opacity="1" fill-rule="nonzero"/></g><g clip-path="url(#71ff06d9dc)"><g clip-path="url(#48d5b04f6d)"><g clip-path="url(#12baab6974)"><path fill="#6462f1" d="M 686.375 136.316406 C 685.921875 136.765625 685.449219 137.195312 684.953125 137.601562 C 684.460938 138.007812 683.945312 138.386719 683.414062 138.742188 C 682.882812 139.097656 682.335938 139.429688 681.769531 139.730469 C 681.207031 140.03125 680.628906 140.304688 680.039062 140.550781 C 679.445312 140.792969 678.84375 141.007812 678.230469 141.195312 C 677.621094 141.378906 677 141.535156 676.371094 141.660156 C 675.746094 141.785156 675.113281 141.878906 674.476562 141.941406 C 673.839844 142.003906 673.203125 142.035156 672.5625 142.035156 C 671.921875 142.035156 671.285156 142.003906 670.648438 141.941406 C 670.011719 141.878906 669.378906 141.785156 668.75 141.660156 C 668.121094 141.535156 667.503906 141.378906 666.890625 141.195312 C 666.277344 141.007812 665.675781 140.792969 665.085938 140.550781 C 664.496094 140.304688 663.917969 140.03125 663.351562 139.730469 C 662.789062 139.429688 662.242188 139.097656 661.707031 138.742188 C 661.175781 138.386719 660.664062 138.007812 660.167969 137.601562 C 659.675781 137.195312 659.199219 136.765625 658.75 136.316406 C 658.296875 135.863281 657.867188 135.386719 657.460938 134.894531 C 657.054688 134.398438 656.675781 133.886719 656.320312 133.355469 C 655.964844 132.824219 655.632812 132.273438 655.332031 131.710938 C 655.03125 131.144531 654.757812 130.566406 654.511719 129.976562 C 654.269531 129.386719 654.054688 128.785156 653.867188 128.171875 C 653.683594 127.558594 653.527344 126.941406 653.402344 126.3125 C 653.277344 125.683594 653.183594 125.050781 653.121094 124.414062 C 653.058594 123.777344 653.027344 123.140625 653.027344 122.5 C 653.027344 121.859375 653.058594 121.222656 653.121094 120.585938 C 653.183594 119.949219 653.277344 119.316406 653.402344 118.691406 C 653.527344 118.0625 653.683594 117.441406 653.867188 116.832031 C 654.054688 116.21875 654.269531 115.617188 654.511719 115.023438 C 654.757812 114.433594 655.03125 113.855469 655.332031 113.292969 C 655.632812 112.726562 655.964844 112.179688 656.320312 111.648438 C 656.675781 111.117188 657.054688 110.601562 657.460938 110.109375 C 657.867188 109.613281 658.296875 109.140625 658.75 108.6875 C 659.199219 108.234375 659.675781 107.804688 660.167969 107.398438 C 660.664062 106.996094 661.175781 106.613281 661.707031 106.257812 C 662.242188 105.902344 662.789062 105.574219 663.351562 105.273438 C 663.917969 104.972656 664.496094 104.699219 665.085938 104.453125 C 665.675781 104.207031 666.277344 103.992188 666.890625 103.808594 C 667.503906 103.621094 668.121094 103.464844 668.75 103.339844 C 669.378906 103.214844 670.011719 103.121094 670.648438 103.058594 C 671.285156 102.996094 671.921875 102.964844 672.5625 102.964844 C 673.203125 102.964844 673.839844 102.996094 674.476562 103.058594 C 675.113281 103.121094 675.746094 103.214844 676.371094 103.339844 C 677 103.464844 677.621094 103.621094 678.230469 103.808594 C 678.84375 103.992188 679.445312 104.207031 680.039062 104.453125 C 680.628906 104.699219 681.207031 104.972656 681.769531 105.273438 C 682.335938 105.574219 682.882812 105.902344 683.414062 106.257812 C 683.945312 106.613281 684.460938 106.996094 684.953125 107.398438 C 685.449219 107.804688 685.921875 108.234375 686.375 108.6875 C 686.828125 109.140625 687.257812 109.613281 687.664062 110.109375 C 688.066406 110.601562 688.449219 111.117188 688.804688 111.648438 C 689.160156 112.179688 689.488281 112.726562 689.789062 113.292969 C 690.089844 113.855469 690.363281 114.433594 690.609375 115.023438 C 690.855469 115.617188 691.070312 116.21875 691.253906 116.832031 C 691.441406 117.441406 691.597656 118.0625 691.722656 118.691406 C 691.847656 119.316406 691.941406 119.949219 692.003906 120.585938 C 692.066406 121.222656 692.097656 121.859375 692.097656 122.5 C 692.097656 123.140625 692.066406 123.777344 692.003906 124.414062 C 691.941406 125.050781 691.847656 125.683594 691.722656 126.3125 C 691.597656 126.941406 691.441406 127.558594 691.253906 128.171875 C 691.070312 128.785156 690.855469 129.386719 690.609375 129.976562 C 690.363281 130.566406 690.089844 131.144531 689.789062 131.710938 C 689.488281 132.273438 689.160156 132.824219 688.804688 133.355469 C 688.449219 133.886719 688.066406 134.398438 687.664062 134.894531 C 687.257812 135.386719 686.828125 135.863281 686.375 136.316406 Z M 686.375 136.316406 " fill-opacity="1" fill-rule="nonzero"/></g></g></g><g clip-path="url(#50959f6b97)"><g clip-path="url(#bac5566bc8)"><g clip-path="url(#60c85b82f8)"><path fill="#ffffff" d="M 680.246094 127.945312 L 674.800781 122.5 L 680.246094 117.058594 C 680.394531 116.910156 680.507812 116.738281 680.589844 116.542969 C 680.667969 116.347656 680.710938 116.148438 680.710938 115.9375 C 680.710938 115.726562 680.667969 115.523438 680.589844 115.332031 C 680.507812 115.136719 680.394531 114.964844 680.246094 114.816406 C 680.097656 114.667969 679.925781 114.554688 679.730469 114.472656 C 679.539062 114.394531 679.335938 114.351562 679.125 114.351562 C 678.914062 114.351562 678.714844 114.394531 678.519531 114.472656 C 678.324219 114.554688 678.15625 114.667969 678.003906 114.816406 L 672.5625 120.261719 L 667.117188 114.816406 C 666.96875 114.667969 666.796875 114.554688 666.601562 114.472656 C 666.410156 114.394531 666.207031 114.355469 665.996094 114.355469 C 665.789062 114.355469 665.585938 114.394531 665.390625 114.476562 C 665.199219 114.554688 665.027344 114.667969 664.878906 114.816406 C 664.730469 114.964844 664.617188 115.136719 664.535156 115.332031 C 664.457031 115.527344 664.414062 115.726562 664.414062 115.9375 C 664.414062 116.148438 664.453125 116.347656 664.535156 116.542969 C 664.613281 116.738281 664.730469 116.910156 664.878906 117.058594 L 670.320312 122.5 L 664.878906 127.945312 C 664.730469 128.09375 664.613281 128.265625 664.535156 128.460938 C 664.453125 128.652344 664.414062 128.855469 664.414062 129.066406 C 664.414062 129.273438 664.453125 129.476562 664.535156 129.671875 C 664.613281 129.867188 664.730469 130.035156 664.878906 130.183594 C 665.027344 130.332031 665.199219 130.449219 665.390625 130.527344 C 665.585938 130.609375 665.789062 130.648438 665.996094 130.648438 C 666.207031 130.648438 666.410156 130.609375 666.601562 130.527344 C 666.796875 130.449219 666.96875 130.332031 667.117188 130.183594 L 672.5625 124.742188 L 678.003906 130.183594 C 678.15625 130.332031 678.324219 130.449219 678.519531 130.527344 C 678.714844 130.609375 678.914062 130.648438 679.125 130.648438 C 679.335938 130.648438 679.535156 130.609375 679.730469 130.527344 C 679.925781 130.445312 680.097656 130.332031 680.246094 130.183594 C 680.394531 130.035156 680.507812 129.863281 680.585938 129.671875 C 680.667969 129.476562 680.707031 129.273438 680.707031 129.066406 C 680.707031 128.855469 680.667969 128.652344 680.589844 128.460938 C 680.507812 128.265625 680.394531 128.09375 680.246094 127.945312 Z M 680.246094 127.945312 " fill-opacity="1" fill-rule="nonzero"/></g></g></g><g clip-path="url(#015c213351)"><path fill="#005ae0" d="M 135.832031 653.570312 L 135.832031 667.835938 L 121.609375 653.570312 L 120.351562 654.777344 L 134.578125 669.046875 L 120.351562 669.046875 L 120.351562 670.75 L 137.53125 670.75 L 137.53125 653.570312 Z M 135.832031 653.570312 " fill-opacity="1" fill-rule="nonzero"/></g><g clip-path="url(#87b5c0c3b5)"><g clip-path="url(#5b6773e308)"><path stroke-linecap="butt" transform="matrix(0.75, 0, 0, 0.75, 179.470454, 507.872754)" fill="none" stroke-linejoin="miter" d="M 50.664398 -0.00221427 L 550.737339 -0.00221427 C 564.17484 -0.00221427 577.060257 5.336328 586.560258 14.841536 C 596.060258 24.341537 601.3988 37.226954 601.3988 50.664455 C 601.3988 64.101956 596.060258 76.987373 586.560258 86.487373 C 577.060257 95.992582 564.17484 101.325916 550.737339 101.325916 L 50.664398 101.325916 C 37.226897 101.325916 24.34148 95.992582 14.841479 86.487373 C 5.33627 76.987373 -0.00227156 64.101956 -0.00227156 50.664455 C -0.00227156 37.226954 5.33627 24.341537 14.841479 14.841536 C 24.34148 5.336328 37.226897 -0.00221427 50.664398 -0.00221427 Z M 50.664398 -0.00221427 " stroke="#6462f1" stroke-width="6" stroke-opacity="1" stroke-miterlimit="4"/></g></g><g clip-path="url(#ae42e18d5d)"><path fill="#6462f1" d="M 662.664062 255.386719 C 662.664062 236.585938 623.085938 221.820312 572.269531 221.507812 L 571.160156 213.316406 C 571.132812 213.191406 571.070312 213.089844 570.96875 213.011719 C 570.871094 212.933594 570.757812 212.894531 570.632812 212.894531 C 570.507812 212.894531 570.394531 212.933594 570.296875 213.011719 C 570.199219 213.089844 570.136719 213.191406 570.109375 213.316406 L 568.996094 221.496094 C 518.179688 221.8125 478.605469 236.574219 478.605469 255.386719 C 478.605469 274.199219 518.179688 288.941406 568.996094 289.253906 L 570.109375 297.441406 C 570.136719 297.566406 570.199219 297.664062 570.296875 297.742188 C 570.394531 297.824219 570.507812 297.863281 570.632812 297.863281 C 570.757812 297.863281 570.871094 297.824219 570.96875 297.742188 C 571.070312 297.664062 571.132812 297.566406 571.160156 297.441406 L 572.269531 289.257812 C 623.085938 288.941406 662.664062 274.179688 662.664062 255.386719 Z M 656.398438 245.808594 C 658.820312 248.515625 660.226562 251.378906 660.5 254.351562 L 645.839844 254.351562 C 645.613281 250.535156 644.953125 246.796875 643.855469 243.136719 C 648.359375 243.945312 652.5625 244.84375 656.390625 245.835938 Z M 629.539062 254.351562 L 624.984375 254.101562 C 624.691406 249.28125 623.667969 244.621094 621.917969 240.117188 C 628.902344 240.835938 635.519531 241.710938 641.617188 242.746094 C 642.832031 246.523438 643.5625 250.394531 643.808594 254.355469 Z M 622.90625 253.984375 C 615.460938 253.570312 606.894531 253.070312 599.855469 252.601562 C 599.398438 247.625 598.1875 242.835938 596.226562 238.238281 C 604.300781 238.605469 612.160156 239.148438 619.636719 239.871094 C 621.492188 244.394531 622.582031 249.09375 622.90625 253.96875 Z M 597.886719 252.472656 C 594.734375 252.253906 591.972656 252.050781 589.898438 251.871094 L 589.859375 251.871094 C 581.832031 250.941406 575.507812 245.125 574.476562 237.726562 C 581.046875 237.769531 587.589844 237.898438 594.011719 238.164062 C 596.085938 242.714844 597.375 247.480469 597.886719 252.453125 Z M 589.859375 258.921875 L 589.898438 258.921875 C 592.003906 258.734375 594.816406 258.527344 598.023438 258.3125 C 597.851562 261.933594 597.210938 265.476562 596.105469 268.929688 C 595.691406 270.214844 595.230469 271.4375 594.734375 272.601562 C 588.082031 272.882812 581.292969 273.039062 574.472656 273.082031 C 575.5 265.660156 581.828125 259.832031 589.859375 258.90625 Z M 599.972656 258.175781 C 607.011719 257.710938 615.570312 257.210938 622.984375 256.796875 C 622.941406 261.625 622.078125 266.296875 620.382812 270.816406 C 612.886719 271.554688 604.996094 272.113281 596.886719 272.492188 C 598.722656 267.890625 599.753906 263.109375 599.972656 258.15625 Z M 625.050781 256.683594 C 626.617188 256.597656 628.121094 256.511719 629.527344 256.4375 L 643.878906 256.4375 C 643.933594 260.320312 643.453125 264.136719 642.441406 267.882812 C 636.328125 268.941406 629.679688 269.839844 622.652344 270.574219 C 624.230469 266.074219 625.03125 261.4375 625.050781 256.667969 Z M 653.414062 242.960938 C 650.199219 242.214844 646.765625 241.527344 643.144531 240.894531 C 642.523438 239.105469 641.816406 237.347656 641.019531 235.628906 C 646.023438 237.835938 650.21875 240.296875 653.414062 242.945312 Z M 638.15625 234.417969 C 639.171875 236.390625 640.0625 238.414062 640.835938 240.492188 C 634.683594 239.484375 628.035156 238.625 621.027344 237.929688 C 619.488281 234.394531 617.640625 231.03125 615.484375 227.832031 C 624.027344 229.570312 631.679688 231.796875 638.15625 234.398438 Z M 612.625 227.261719 C 614.976562 230.546875 617 234.027344 618.691406 237.695312 C 611.199219 236.996094 603.335938 236.472656 595.277344 236.121094 C 593.257812 231.882812 590.824219 227.902344 587.976562 224.171875 C 596.253906 224.726562 604.46875 225.757812 612.625 227.261719 Z M 585.273438 224 C 588.257812 227.742188 590.832031 231.75 592.988281 236.023438 C 586.800781 235.785156 580.503906 235.664062 574.1875 235.625 L 572.550781 223.597656 C 576.875 223.628906 581.128906 223.757812 585.273438 224 Z M 542.5625 252.507812 C 535.796875 252.964844 527.382812 253.460938 519.894531 253.878906 C 520.234375 248.980469 521.34375 244.261719 523.226562 239.726562 C 530.636719 239.054688 538.339844 238.546875 546.210938 238.191406 C 544.246094 242.773438 543.03125 247.546875 542.5625 252.507812 Z M 548.417969 238.109375 C 554.488281 237.871094 560.632812 237.75 566.78125 237.707031 C 565.753906 245.09375 559.429688 250.921875 551.40625 251.847656 L 551.371094 251.847656 C 549.554688 252.007812 547.207031 252.183594 544.539062 252.367188 C 545.058594 247.402344 546.351562 242.652344 548.425781 238.109375 Z M 517.820312 254 L 511.730469 254.332031 L 498.261719 254.332031 C 498.507812 250.289062 499.261719 246.34375 500.519531 242.492188 C 506.917969 241.484375 513.78125 240.632812 520.953125 239.941406 C 519.175781 244.464844 518.132812 249.148438 517.820312 254 Z M 511.738281 256.421875 L 517.75 256.75 C 517.785156 261.554688 518.609375 266.21875 520.21875 270.742188 C 513.003906 270.03125 506.113281 269.160156 499.695312 268.128906 C 498.636719 264.296875 498.132812 260.394531 498.1875 256.421875 Z M 519.820312 256.859375 C 527.28125 257.277344 535.679688 257.773438 542.453125 258.226562 C 542.679688 263.164062 543.714844 267.925781 545.550781 272.511719 C 537.652344 272.160156 529.902344 271.636719 522.472656 270.949219 C 520.753906 266.414062 519.871094 261.71875 519.820312 256.867188 Z M 544.402344 258.359375 C 547.128906 258.550781 549.523438 258.730469 551.371094 258.890625 L 551.40625 258.890625 C 559.433594 259.820312 565.753906 265.636719 566.789062 273.03125 C 560.394531 272.988281 554.003906 272.855469 547.699219 272.59375 C 547.210938 271.445312 546.753906 270.242188 546.34375 268.972656 C 545.230469 265.523438 544.582031 261.988281 544.402344 258.367188 Z M 568.714844 223.585938 L 567.082031 235.621094 C 561.179688 235.660156 555.277344 235.769531 549.445312 235.988281 C 551.605469 231.710938 554.179688 227.703125 557.167969 223.960938 L 557.121094 223.921875 C 560.90625 223.726562 564.78125 223.628906 568.710938 223.59375 Z M 554.507812 224.085938 C 551.640625 227.828125 549.195312 231.832031 547.160156 236.085938 C 539.3125 236.410156 531.597656 236.902344 524.183594 237.554688 C 525.917969 233.820312 527.992188 230.28125 530.402344 226.941406 C 538.382812 225.546875 546.417969 224.597656 554.503906 224.09375 Z M 504.109375 233.984375 C 510.828125 231.375 518.757812 229.167969 527.582031 227.453125 C 525.355469 230.710938 523.445312 234.144531 521.851562 237.757812 C 514.65625 238.429688 507.757812 239.261719 501.3125 240.25 C 502.113281 238.105469 503.042969 236.019531 504.105469 233.992188 Z M 501.261719 235.144531 C 500.414062 236.929688 499.660156 238.753906 499.007812 240.621094 C 495.257812 241.230469 491.667969 241.890625 488.273438 242.609375 C 491.640625 239.910156 496.015625 237.398438 501.261719 235.152344 Z M 485.226562 245.421875 C 489.277344 244.480469 493.652344 243.625 498.285156 242.855469 C 497.140625 246.597656 496.453125 250.425781 496.222656 254.332031 L 480.765625 254.332031 C 481.050781 251.226562 482.59375 248.242188 485.226562 245.421875 Z M 480.765625 256.421875 L 496.140625 256.421875 C 496.089844 260.261719 496.539062 264.039062 497.480469 267.761719 C 493.148438 267.027344 489.042969 266.21875 485.226562 265.328125 C 482.59375 262.511719 481.050781 259.523438 480.765625 256.421875 Z M 488.273438 268.136719 C 491.394531 268.796875 494.671875 269.414062 498.101562 269.984375 C 498.640625 271.714844 499.292969 273.40625 500.050781 275.054688 C 495.339844 272.945312 491.367188 270.625 488.273438 268.136719 Z M 502.933594 276.28125 C 501.917969 274.371094 501.066406 272.386719 500.375 270.339844 C 506.859375 271.355469 513.785156 272.207031 521.042969 272.910156 C 522.558594 276.558594 524.488281 279.96875 526.832031 283.148438 C 517.789062 281.347656 509.707031 279.019531 502.933594 276.28125 Z M 529.84375 283.707031 C 527.207031 280.472656 525.046875 276.945312 523.355469 273.128906 C 530.804688 273.800781 538.554688 274.304688 546.453125 274.640625 C 548.453125 279.027344 551.042969 283.03125 554.226562 286.648438 C 546.042969 286.125 537.914062 285.148438 529.84375 283.707031 Z M 556.917969 286.8125 L 557.054688 286.664062 C 556.996094 286.609375 552.308594 282.242188 548.652344 274.722656 C 554.742188 274.957031 560.90625 275.078125 567.074219 275.121094 L 568.710938 287.167969 C 564.714844 287.128906 560.769531 287.023438 556.917969 286.8125 Z M 585.4375 286.742188 C 581.238281 286.988281 576.929688 287.121094 572.558594 287.15625 L 574.191406 275.125 C 580.777344 275.085938 587.332031 274.957031 593.777344 274.6875 C 590.125 282.210938 585.425781 286.605469 585.367188 286.660156 Z M 588.265625 286.5625 C 591.421875 282.957031 593.996094 278.96875 595.984375 274.601562 C 604.085938 274.238281 611.992188 273.695312 619.507812 272.976562 C 617.871094 276.71875 615.777344 280.1875 613.230469 283.378906 C 604.96875 284.929688 596.648438 285.992188 588.265625 286.5625 Z M 639.328125 275.875 C 632.804688 278.605469 624.996094 280.941406 616.246094 282.765625 C 618.503906 279.644531 620.359375 276.304688 621.820312 272.742188 C 628.886719 272.023438 635.585938 271.148438 641.753906 270.113281 C 641.09375 272.097656 640.285156 274.019531 639.328125 275.875 Z M 642.207031 274.609375 C 642.921875 273.015625 643.535156 271.386719 644.050781 269.714844 C 647.339844 269.132812 650.464844 268.496094 653.414062 267.808594 C 650.476562 270.246094 646.691406 272.527344 642.207031 274.609375 Z M 656.390625 264.933594 C 652.792969 265.867188 648.855469 266.714844 644.652344 267.488281 C 645.546875 263.851562 645.96875 260.164062 645.917969 256.421875 L 660.5 256.421875 C 660.226562 259.382812 658.820312 262.25 656.398438 264.964844 Z M 656.390625 264.933594 " fill-opacity="1" fill-rule="nonzero"/></g><g fill="#6462f1" fill-opacity="1"><g transform="translate(201.996483, 670.506961)"><g><path d="M 3.976562 0.199219 C 8.496094 0.460938 9.695312 -1.417969 9.695312 -5.394531 L 9.695312 -12.589844 C 9.695312 -13.691406 9.09375 -14.332031 7.996094 -14.289062 L 2.257812 -14.089844 L 2.257812 -11.292969 L 6.496094 -11.492188 L 6.496094 -6.476562 C 6.496094 -4.058594 6.316406 -2.457031 3.976562 -2.597656 L 0.398438 -2.796875 L 0.398438 0 Z M 3.976562 0.199219 "/></g></g></g><g fill="#6462f1" fill-opacity="1"><g transform="translate(212.688593, 670.506961)"><g><path d="M 0.800781 -5.054688 C 0.800781 -1.519531 3.316406 0.199219 6.496094 0.199219 C 9.652344 0.199219 12.171875 -1.519531 12.171875 -5.054688 C 12.171875 -8.574219 9.652344 -10.292969 6.496094 -10.292969 C 3.316406 -10.292969 0.800781 -8.574219 0.800781 -5.054688 Z M 3.996094 -5.054688 C 3.996094 -6.734375 4.976562 -7.496094 6.496094 -7.496094 C 7.996094 -7.496094 8.972656 -6.734375 8.972656 -5.054688 C 8.972656 -3.359375 7.996094 -2.597656 6.496094 -2.597656 C 4.976562 -2.597656 3.996094 -3.359375 3.996094 -5.054688 Z M 3.996094 -5.054688 "/></g></g></g><g fill="#6462f1" fill-opacity="1"><g transform="translate(225.659018, 670.506961)"><g><path d="M 4.9375 -11.09375 C 6.117188 -11.09375 6.855469 -11.652344 6.855469 -12.691406 C 6.855469 -13.710938 6.117188 -14.289062 4.9375 -14.289062 C 3.757812 -14.289062 3.058594 -13.710938 3.058594 -12.691406 C 3.058594 -11.652344 3.757812 -11.09375 4.9375 -11.09375 Z M 9.59375 0 L 9.59375 -2.796875 L 6.734375 -2.796875 L 6.734375 -8.613281 C 6.734375 -9.734375 6.117188 -10.351562 4.996094 -10.292969 L 1.199219 -10.09375 L 1.199219 -7.296875 L 3.65625 -7.414062 L 3.65625 -2.796875 L 0.800781 -2.796875 L 0.800781 0 Z M 9.59375 0 "/></g></g></g><g fill="#6462f1" fill-opacity="1"><g transform="translate(235.651641, 670.506961)"><g><path d="M 7.273438 -7.496094 C 8.8125 -7.496094 9.355469 -6.796875 9.355469 -4.957031 L 9.355469 0 L 12.550781 0 L 12.550781 -5.457031 C 12.550781 -8.574219 10.992188 -10.292969 8.414062 -10.292969 C 6.253906 -10.292969 4.996094 -8.875 4.597656 -7.074219 L 3.796875 -7.074219 L 4.398438 -8.875 L 4.398438 -10.09375 L 1.199219 -10.09375 L 1.199219 0 L 4.398438 0 L 4.398438 -3.738281 C 4.398438 -6.574219 5.535156 -7.496094 7.273438 -7.496094 Z M 7.273438 -7.496094 "/></g></g></g><g fill="#6462f1" fill-opacity="1"><g transform="translate(249.201634, 670.506961)"><g/></g></g><g fill="#6462f1" fill-opacity="1"><g transform="translate(254.797507, 670.506961)"><g><path d="M 11.953125 -2.796875 L 11.050781 -2.796875 L 7.496094 -14.089844 L 1.199219 -14.089844 L 1.199219 0 L 4.398438 0 L 4.398438 -11.292969 L 5.296875 -11.292969 L 8.855469 0 L 15.148438 0 L 15.148438 -14.089844 L 11.953125 -14.089844 Z M 11.953125 -2.796875 "/></g></g></g><g fill="#6462f1" fill-opacity="1"><g transform="translate(271.145438, 670.506961)"><g><path d="M 0.800781 -5.054688 C 0.800781 -1.519531 3.316406 0.199219 6.496094 0.199219 C 9.652344 0.199219 12.171875 -1.519531 12.171875 -5.054688 C 12.171875 -8.574219 9.652344 -10.292969 6.496094 -10.292969 C 3.316406 -10.292969 0.800781 -8.574219 0.800781 -5.054688 Z M 3.996094 -5.054688 C 3.996094 -6.734375 4.976562 -7.496094 6.496094 -7.496094 C 7.996094 -7.496094 8.972656 -6.734375 8.972656 -5.054688 C 8.972656 -3.359375 7.996094 -2.597656 6.496094 -2.597656 C 4.976562 -2.597656 3.996094 -3.359375 3.996094 -5.054688 Z M 3.996094 -5.054688 "/></g></g></g><g fill="#6462f1" fill-opacity="1"><g transform="translate(284.115862, 670.506961)"><g><path d="M 2.117188 0 L 7.792969 0 L 9.074219 -7.296875 L 9.875 -7.296875 L 11.152344 0 L 16.828125 0 L 18.746094 -10.09375 L 15.710938 -10.09375 L 14.390625 -2.796875 L 13.589844 -2.796875 L 12.3125 -10.09375 L 6.636719 -10.09375 L 5.355469 -2.796875 L 4.558594 -2.796875 L 3.257812 -10.09375 L 0.199219 -10.09375 Z M 2.117188 0 "/></g></g></g><g fill="#6462f1" fill-opacity="1"><g transform="translate(120.35148, 127.455918)"><g><path d="M 10.136719 -2.738281 L 9.355469 -2.738281 L 7.339844 -13.796875 L 1.175781 -13.796875 L 1.175781 0 L 4.304688 0 L 4.304688 -11.054688 L 4.792969 -11.054688 L 6.90625 0 L 12.582031 0 L 14.695312 -11.054688 L 15.183594 -11.054688 L 15.183594 0 L 18.316406 0 L 18.316406 -13.796875 L 12.152344 -13.796875 Z M 10.136719 -2.738281 "/></g></g></g><g fill="#6462f1" fill-opacity="1"><g transform="translate(139.839318, 127.455918)"><g><path d="M 11.015625 0 L 11.015625 -2.738281 L 4.304688 -2.738281 L 4.304688 -5.539062 L 10.039062 -5.539062 L 10.039062 -8.277344 L 4.304688 -8.277344 L 4.304688 -11.054688 L 11.015625 -11.054688 L 11.015625 -13.796875 L 1.175781 -13.796875 L 1.175781 0 Z M 11.015625 0 "/></g></g></g><g fill="#6462f1" fill-opacity="1"><g transform="translate(151.637686, 127.455918)"><g><path d="M 0.585938 -13.796875 L 0.585938 -11.054688 L 5.105469 -11.054688 L 5.105469 0 L 8.238281 0 L 8.238281 -11.054688 L 12.738281 -11.054688 L 12.738281 -13.796875 Z M 0.585938 -13.796875 "/></g></g></g><g fill="#6462f1" fill-opacity="1"><g transform="translate(164.962207, 127.455918)"><g><path d="M 4.304688 0 L 4.304688 -4.851562 L 9.707031 -4.851562 L 9.707031 0 L 12.835938 0 L 12.835938 -4.402344 C 12.835938 -5.480469 12.25 -6.066406 11.171875 -6.066406 L 9.15625 -6.066406 L 9.15625 -6.847656 C 10.820312 -7.042969 12.660156 -7.671875 12.660156 -9.941406 C 12.660156 -13.03125 9.804688 -13.796875 6.515625 -13.796875 L 1.175781 -13.796875 L 1.175781 0 Z M 4.304688 -11.054688 L 6.515625 -11.054688 C 8.375 -11.054688 9.53125 -11.054688 9.53125 -9.316406 C 9.53125 -7.59375 8.375 -7.59375 6.515625 -7.59375 L 4.304688 -7.59375 Z M 4.304688 -11.054688 "/></g></g></g><g fill="#6462f1" fill-opacity="1"><g transform="translate(178.971538, 127.455918)"><g><path d="M 0.976562 -6.90625 C 0.976562 -2.875 3.640625 0.195312 8.023438 0.195312 C 12.386719 0.195312 15.046875 -2.875 15.046875 -6.90625 C 15.046875 -10.917969 12.386719 -13.992188 8.023438 -13.992188 C 3.640625 -13.992188 0.976562 -10.917969 0.976562 -6.90625 Z M 4.109375 -6.90625 C 4.109375 -9.550781 5.421875 -11.25 8.023438 -11.25 C 10.625 -11.25 11.917969 -9.550781 11.917969 -6.90625 C 11.917969 -4.246094 10.625 -2.542969 8.023438 -2.542969 C 5.421875 -2.542969 4.109375 -4.246094 4.109375 -6.90625 Z M 4.109375 -6.90625 "/></g></g></g><g fill="#6462f1" fill-opacity="1"><g transform="translate(194.996182, 127.455918)"><g/></g></g><g fill="#6462f1" fill-opacity="1"><g transform="translate(200.474689, 127.455918)"><g><path d="M 11.015625 0 L 11.015625 -2.738281 L 4.304688 -2.738281 L 4.304688 -5.539062 L 10.039062 -5.539062 L 10.039062 -8.277344 L 4.304688 -8.277344 L 4.304688 -11.054688 L 11.015625 -11.054688 L 11.015625 -13.796875 L 1.175781 -13.796875 L 1.175781 0 Z M 11.015625 0 "/></g></g></g><g fill="#6462f1" fill-opacity="1"><g transform="translate(212.273058, 127.455918)"><g><path d="M 5.046875 0 L 10.136719 0 L 14.8125 -13.796875 L 11.644531 -13.796875 L 7.984375 -2.738281 L 7.203125 -2.738281 L 3.5625 -13.796875 L 0.390625 -13.796875 Z M 5.046875 0 "/></g></g></g><g fill="#6462f1" fill-opacity="1"><g transform="translate(227.475924, 127.455918)"><g><path d="M 11.015625 0 L 11.015625 -2.738281 L 4.304688 -2.738281 L 4.304688 -5.539062 L 10.039062 -5.539062 L 10.039062 -8.277344 L 4.304688 -8.277344 L 4.304688 -11.054688 L 11.015625 -11.054688 L 11.015625 -13.796875 L 1.175781 -13.796875 L 1.175781 0 Z M 11.015625 0 "/></g></g></g><g fill="#6462f1" fill-opacity="1"><g transform="translate(239.274293, 127.455918)"><g><path d="M 11.703125 -2.738281 L 10.820312 -2.738281 L 7.339844 -13.796875 L 1.175781 -13.796875 L 1.175781 0 L 4.304688 0 L 4.304688 -11.054688 L 5.1875 -11.054688 L 8.667969 0 L 14.832031 0 L 14.832031 -13.796875 L 11.703125 -13.796875 Z M 11.703125 -2.738281 "/></g></g></g><g fill="#6462f1" fill-opacity="1"><g transform="translate(255.279372, 127.455918)"><g><path d="M 0.585938 -13.796875 L 0.585938 -11.054688 L 5.105469 -11.054688 L 5.105469 0 L 8.238281 0 L 8.238281 -11.054688 L 12.738281 -11.054688 L 12.738281 -13.796875 Z M 0.585938 -13.796875 "/></g></g></g><g fill="#6462f1" fill-opacity="1"><g transform="translate(268.603893, 127.455918)"><g><path d="M 13.324219 -3.796875 C 13.324219 -6.671875 9.433594 -7.769531 6.886719 -8.628906 C 4.675781 -9.375 4.34375 -9.609375 4.34375 -10.234375 C 4.34375 -10.9375 5.226562 -11.25 6.632812 -11.25 C 8.335938 -11.25 9.628906 -10.78125 9.628906 -9.097656 L 12.757812 -9.097656 C 12.757812 -11.839844 10.859375 -13.992188 6.632812 -13.992188 C 3.070312 -13.992188 1.214844 -12.699219 1.214844 -10.351562 C 1.214844 -7.652344 3.582031 -6.867188 6.496094 -5.890625 C 8.511719 -5.207031 10.195312 -4.753906 10.195312 -3.757812 C 10.195312 -3.011719 9.53125 -2.542969 7.515625 -2.542969 C 4.773438 -2.542969 3.71875 -3.210938 3.71875 -5.324219 L 0.585938 -5.324219 C 0.585938 -1.839844 2.445312 0.195312 7.417969 0.195312 C 11.664062 0.195312 13.324219 -1.429688 13.324219 -3.796875 Z M 13.324219 -3.796875 "/></g></g></g><g fill="#6462f1" fill-opacity="1"><g transform="translate(325.756802, 554.949315)"><g><path d="M 7.421875 0.378906 C 14.695312 0.832031 15.492188 -4.28125 15.492188 -11.929688 L 15.492188 -24.808594 C 15.492188 -26.246094 14.695312 -27.15625 13.21875 -27.082031 L 5.417969 -26.703125 L 5.417969 -24.050781 L 12.421875 -24.429688 L 12.421875 -12.269531 C 12.421875 -4.773438 11.855469 -2.007812 7.421875 -2.273438 L 1.25 -2.652344 L 1.25 0 Z M 7.421875 0.378906 "/></g></g></g><g fill="#6462f1" fill-opacity="1"><g transform="translate(340.717271, 554.949315)"><g><path d="M 2.007812 -9.429688 C 2.007812 -3.9375 5.945312 0.378906 11.96875 0.378906 C 17.953125 0.378906 21.855469 -3.9375 21.855469 -9.429688 C 21.855469 -14.882812 17.953125 -19.203125 11.96875 -19.203125 C 5.945312 -19.203125 2.007812 -14.882812 2.007812 -9.429688 Z M 5.113281 -9.429688 C 5.113281 -13.332031 7.5 -16.550781 11.96875 -16.550781 C 16.398438 -16.550781 18.785156 -13.332031 18.785156 -9.429688 C 18.785156 -5.492188 16.398438 -2.273438 11.96875 -2.273438 C 7.5 -2.273438 5.113281 -5.492188 5.113281 -9.429688 Z M 5.113281 -9.429688 "/></g></g></g><g fill="#6462f1" fill-opacity="1"><g transform="translate(361.661927, 554.949315)"><g><path d="M 8.292969 -21.816406 C 9.808594 -21.816406 11.023438 -22.953125 11.023438 -24.46875 C 11.023438 -25.90625 9.808594 -27.082031 8.292969 -27.082031 C 6.742188 -27.082031 5.566406 -25.90625 5.566406 -24.46875 C 5.566406 -22.953125 6.742188 -21.816406 8.292969 -21.816406 Z M 15.527344 0 L 15.527344 -2.652344 L 10.226562 -2.652344 L 10.226562 -16.929688 C 10.226562 -18.371094 9.542969 -19.355469 7.765625 -19.203125 L 3.410156 -18.824219 L 3.410156 -16.171875 L 7.308594 -16.511719 L 7.308594 -2.652344 L 2.007812 -2.652344 L 2.007812 0 Z M 15.527344 0 "/></g></g></g><g fill="#6462f1" fill-opacity="1"><g transform="translate(375.486158, 554.949315)"><g><path d="M 12.648438 -16.550781 C 15.871094 -16.550781 17.421875 -15.035156 17.421875 -11.097656 L 17.421875 0 L 20.488281 0 L 20.488281 -11.515625 C 20.488281 -16.742188 17.726562 -19.203125 13.484375 -19.203125 C 9.394531 -19.203125 7.007812 -16.816406 6.25 -13.40625 L 5.378906 -13.40625 L 5.871094 -15.566406 L 5.871094 -18.824219 L 2.765625 -18.824219 L 2.765625 0 L 5.871094 0 L 5.871094 -8.332031 C 5.871094 -13.40625 8.671875 -16.550781 12.648438 -16.550781 Z M 12.648438 -16.550781 "/></g></g></g><g fill="#6462f1" fill-opacity="1"><g transform="translate(395.446075, 554.949315)"><g/></g></g><g fill="#6462f1" fill-opacity="1"><g transform="translate(405.06623, 554.949315)"><g><path d="M 5.871094 0 L 5.871094 -23.597656 L 5.378906 -25.1875 L 6.476562 -25.1875 L 19.542969 0 L 25.792969 0 L 25.792969 -26.703125 L 22.726562 -26.703125 L 22.726562 -3.105469 L 23.21875 -1.515625 L 22.117188 -1.515625 L 9.015625 -26.703125 L 2.765625 -26.703125 L 2.765625 0 Z M 5.871094 0 "/></g></g></g><g fill="#6462f1" fill-opacity="1"><g transform="translate(430.707332, 554.949315)"><g><path d="M 2.007812 -9.429688 C 2.007812 -3.9375 5.945312 0.378906 11.96875 0.378906 C 17.953125 0.378906 21.855469 -3.9375 21.855469 -9.429688 C 21.855469 -14.882812 17.953125 -19.203125 11.96875 -19.203125 C 5.945312 -19.203125 2.007812 -14.882812 2.007812 -9.429688 Z M 5.113281 -9.429688 C 5.113281 -13.332031 7.5 -16.550781 11.96875 -16.550781 C 16.398438 -16.550781 18.785156 -13.332031 18.785156 -9.429688 C 18.785156 -5.492188 16.398438 -2.273438 11.96875 -2.273438 C 7.5 -2.273438 5.113281 -5.492188 5.113281 -9.429688 Z M 5.113281 -9.429688 "/></g></g></g><g fill="#6462f1" fill-opacity="1"><g transform="translate(451.651984, 554.949315)"><g><path d="M 5.832031 0 L 11.855469 0 L 15.832031 -17.308594 L 16.742188 -17.308594 L 20.71875 0 L 26.738281 0 L 31.664062 -18.824219 L 28.746094 -18.824219 L 24.164062 -1.515625 L 23.292969 -1.515625 L 19.316406 -18.824219 L 13.257812 -18.824219 L 9.277344 -1.515625 L 8.371094 -1.515625 L 3.824219 -18.824219 L 0.871094 -18.824219 Z M 5.832031 0 "/></g></g></g></svg>