<svg xmlns="http://www.w3.org/2000/svg" xmlns:xlink="http://www.w3.org/1999/xlink" width="500" zoomAndPan="magnify" viewBox="0 0 375 149.999998" height="200" preserveAspectRatio="xMidYMid meet" version="1.0"><defs><g/></defs><g fill="#6462f1" fill-opacity="1"><g transform="translate(19.697825, 95.596542)"><g><path d="M 7.28125 0 L 7.28125 -62.25 L 28.765625 -62.25 L 28.765625 -55.703125 L 29 -55.703125 C 34.582031 -61.273438 40.53125 -64.0625 46.84375 -64.0625 C 51.375 -64.0625 55.617188 -63.128906 59.578125 -61.265625 C 63.546875 -59.410156 66.539062 -56.539062 68.5625 -52.65625 C 74.875 -60.257812 81.75 -64.0625 89.1875 -64.0625 C 95.820312 -64.0625 101.523438 -62.203125 106.296875 -58.484375 C 111.066406 -54.765625 113.453125 -48.941406 113.453125 -41.015625 L 113.453125 0 L 91.984375 0 L 91.984375 -35.1875 C 91.984375 -38.507812 91.070312 -41.28125 89.25 -43.5 C 87.425781 -45.726562 84.695312 -46.84375 81.0625 -46.84375 C 77.90625 -46.84375 75.492188 -45.890625 73.828125 -43.984375 C 72.171875 -42.085938 71.265625 -39.800781 71.109375 -37.125 L 71.109375 0 L 49.625 0 L 49.625 -35.1875 C 49.625 -38.507812 48.710938 -41.28125 46.890625 -43.5 C 45.078125 -45.726562 42.347656 -46.84375 38.703125 -46.84375 C 35.390625 -46.84375 32.90625 -45.8125 31.25 -43.75 C 29.59375 -41.6875 28.765625 -39.238281 28.765625 -36.40625 L 28.765625 0 Z M 7.28125 0 "/></g></g></g><g fill="#6462f1" fill-opacity="1"><g transform="translate(127.79318, 95.596542)"><g><path d="M 70.265625 -28.15625 L 25.125 -28.15625 C 25.125 -23.78125 26.535156 -20.539062 29.359375 -18.4375 C 32.191406 -16.34375 35.269531 -15.296875 38.59375 -15.296875 C 42.070312 -15.296875 44.820312 -15.757812 46.84375 -16.6875 C 48.863281 -17.613281 51.164062 -19.453125 53.75 -22.203125 L 69.28125 -14.4375 C 62.8125 -3.601562 52.054688 1.8125 37.015625 1.8125 C 27.628906 1.8125 19.578125 -1.398438 12.859375 -7.828125 C 6.148438 -14.253906 2.796875 -22 2.796875 -31.0625 C 2.796875 -40.125 6.148438 -47.890625 12.859375 -54.359375 C 19.578125 -60.828125 27.628906 -64.0625 37.015625 -64.0625 C 46.878906 -64.0625 54.90625 -61.207031 61.09375 -55.5 C 67.28125 -49.800781 70.375 -41.65625 70.375 -31.0625 C 70.375 -29.601562 70.335938 -28.632812 70.265625 -28.15625 Z M 25.71875 -40.046875 L 49.390625 -40.046875 C 48.898438 -43.273438 47.625 -45.757812 45.5625 -47.5 C 43.5 -49.238281 40.847656 -50.109375 37.609375 -50.109375 C 34.054688 -50.109375 31.226562 -49.175781 29.125 -47.3125 C 27.019531 -45.457031 25.882812 -43.035156 25.71875 -40.046875 Z M 25.71875 -40.046875 "/></g></g></g><g fill="#6462f1" fill-opacity="1"><g transform="translate(189.543198, 95.596542)"><g><path d="M 10.921875 -62.25 L 10.921875 -85.421875 L 32.40625 -85.421875 L 32.40625 -62.25 L 45.5 -62.25 L 45.5 -45.875 L 32.40625 -45.875 L 32.40625 -26.09375 C 32.40625 -20.34375 34.019531 -17.46875 37.25 -17.46875 C 38.0625 -17.46875 38.910156 -17.628906 39.796875 -17.953125 C 40.691406 -18.273438 41.378906 -18.597656 41.859375 -18.921875 L 42.59375 -19.421875 L 47.9375 -2.0625 C 43.320312 0.519531 38.0625 1.8125 32.15625 1.8125 C 28.113281 1.8125 24.632812 1.109375 21.71875 -0.296875 C 18.8125 -1.710938 16.609375 -3.613281 15.109375 -6 C 13.609375 -8.394531 12.535156 -10.90625 11.890625 -13.53125 C 11.242188 -16.15625 10.921875 -18.96875 10.921875 -21.96875 L 10.921875 -45.875 L 1.9375 -45.875 L 1.9375 -62.25 Z M 10.921875 -62.25 "/></g></g></g><g fill="#6462f1" fill-opacity="1"><g transform="translate(226.058047, 95.596542)"><g><path d="M 7.28125 0 L 7.28125 -62.25 L 28.765625 -62.25 L 28.765625 -53.265625 L 29 -53.265625 C 29.164062 -53.585938 29.429688 -53.992188 29.796875 -54.484375 C 30.160156 -54.972656 30.945312 -55.820312 32.15625 -57.03125 C 33.363281 -58.25 34.65625 -59.34375 36.03125 -60.3125 C 37.414062 -61.28125 39.195312 -62.144531 41.375 -62.90625 C 43.5625 -63.675781 45.785156 -64.0625 48.046875 -64.0625 C 50.398438 -64.0625 52.707031 -63.738281 54.96875 -63.09375 C 57.226562 -62.445312 58.882812 -61.800781 59.9375 -61.15625 L 61.640625 -60.1875 L 52.65625 -41.984375 C 49.988281 -44.242188 46.269531 -45.375 41.5 -45.375 C 38.90625 -45.375 36.675781 -44.804688 34.8125 -43.671875 C 32.957031 -42.546875 31.644531 -41.171875 30.875 -39.546875 C 30.113281 -37.929688 29.570312 -36.554688 29.25 -35.421875 C 28.925781 -34.296875 28.765625 -33.410156 28.765625 -32.765625 L 28.765625 0 Z M 7.28125 0 "/></g></g></g><g fill="#6462f1" fill-opacity="1"><g transform="translate(275.069167, 95.596542)"><g><path d="M 13.171875 -7.40625 C 6.253906 -13.550781 2.796875 -21.4375 2.796875 -31.0625 C 2.796875 -40.6875 6.394531 -48.59375 13.59375 -54.78125 C 20.789062 -60.96875 29.6875 -64.0625 40.28125 -64.0625 C 50.71875 -64.0625 59.515625 -60.945312 66.671875 -54.71875 C 73.835938 -48.488281 77.421875 -40.601562 77.421875 -31.0625 C 77.421875 -21.519531 73.921875 -13.65625 66.921875 -7.46875 C 59.921875 -1.28125 51.039062 1.8125 40.28125 1.8125 C 29.125 1.8125 20.085938 -1.257812 13.171875 -7.40625 Z M 29.78125 -41.625 C 27 -38.875 25.609375 -35.351562 25.609375 -31.0625 C 25.609375 -26.769531 26.941406 -23.269531 29.609375 -20.5625 C 32.273438 -17.851562 35.796875 -16.5 40.171875 -16.5 C 44.367188 -16.5 47.820312 -17.875 50.53125 -20.625 C 53.25 -23.375 54.609375 -26.851562 54.609375 -31.0625 C 54.609375 -35.351562 53.210938 -38.875 50.421875 -41.625 C 47.628906 -44.375 44.210938 -45.75 40.171875 -45.75 C 36.035156 -45.75 32.570312 -44.375 29.78125 -41.625 Z M 29.78125 -41.625 "/></g></g></g><g fill="#6462f1" fill-opacity="1"><g transform="translate(109.420253, 128.477078)"><g><path d="M 12.96875 -6.890625 C 12.945312 -6.597656 12.820312 -6.347656 12.59375 -6.140625 C 12.375 -5.941406 12.109375 -5.84375 11.796875 -5.84375 L 3.203125 -5.84375 C 3.316406 -4.644531 3.765625 -3.6875 4.546875 -2.96875 C 5.335938 -2.257812 6.304688 -1.90625 7.453125 -1.90625 C 8.234375 -1.90625 8.867188 -2.019531 9.359375 -2.25 C 9.847656 -2.476562 10.273438 -2.769531 10.640625 -3.125 C 10.890625 -3.269531 11.128906 -3.34375 11.359375 -3.34375 C 11.628906 -3.34375 11.859375 -3.242188 12.046875 -3.046875 C 12.234375 -2.859375 12.328125 -2.632812 12.328125 -2.375 C 12.328125 -2.03125 12.164062 -1.71875 11.84375 -1.4375 C 11.375 -0.96875 10.75 -0.566406 9.96875 -0.234375 C 9.1875 0.0859375 8.390625 0.25 7.578125 0.25 C 6.253906 0.25 5.09375 -0.0234375 4.09375 -0.578125 C 3.09375 -1.140625 2.316406 -1.914062 1.765625 -2.90625 C 1.222656 -3.894531 0.953125 -5.019531 0.953125 -6.28125 C 0.953125 -7.644531 1.234375 -8.84375 1.796875 -9.875 C 2.359375 -10.90625 3.097656 -11.695312 4.015625 -12.25 C 4.929688 -12.8125 5.921875 -13.09375 6.984375 -13.09375 C 8.023438 -13.09375 9 -12.820312 9.90625 -12.28125 C 10.820312 -11.75 11.554688 -11.007812 12.109375 -10.0625 C 12.660156 -9.113281 12.945312 -8.054688 12.96875 -6.890625 Z M 6.984375 -10.9375 C 6.066406 -10.9375 5.273438 -10.679688 4.609375 -10.171875 C 3.941406 -9.660156 3.503906 -8.867188 3.296875 -7.796875 L 10.5 -7.796875 L 10.5 -7.984375 C 10.414062 -8.847656 10.023438 -9.554688 9.328125 -10.109375 C 8.640625 -10.660156 7.859375 -10.9375 6.984375 -10.9375 Z M 6.984375 -10.9375 "/></g></g></g><g fill="#6462f1" fill-opacity="1"><g transform="translate(139.257714, 128.477078)"><g><path d="M 11.5 -12.921875 C 11.8125 -12.921875 12.070312 -12.816406 12.28125 -12.609375 C 12.5 -12.410156 12.609375 -12.171875 12.609375 -11.890625 C 12.609375 -11.742188 12.550781 -11.539062 12.4375 -11.28125 L 7.796875 -0.734375 C 7.691406 -0.523438 7.550781 -0.351562 7.375 -0.21875 C 7.195312 -0.09375 7.003906 -0.0195312 6.796875 0 C 6.535156 0.03125 6.289062 -0.015625 6.0625 -0.140625 C 5.84375 -0.273438 5.675781 -0.472656 5.5625 -0.734375 L 0.921875 -11.28125 C 0.847656 -11.53125 0.8125 -11.734375 0.8125 -11.890625 C 0.8125 -12.148438 0.914062 -12.382812 1.125 -12.59375 C 1.332031 -12.8125 1.609375 -12.921875 1.953125 -12.921875 C 2.191406 -12.921875 2.410156 -12.859375 2.609375 -12.734375 C 2.804688 -12.609375 2.960938 -12.425781 3.078125 -12.1875 L 6.765625 -3.609375 L 10.453125 -12.1875 C 10.679688 -12.675781 11.03125 -12.921875 11.5 -12.921875 Z M 11.5 -12.921875 "/></g></g></g><g fill="#6462f1" fill-opacity="1"><g transform="translate(168.558181, 128.477078)"><g><path d="M 12.96875 -6.890625 C 12.945312 -6.597656 12.820312 -6.347656 12.59375 -6.140625 C 12.375 -5.941406 12.109375 -5.84375 11.796875 -5.84375 L 3.203125 -5.84375 C 3.316406 -4.644531 3.765625 -3.6875 4.546875 -2.96875 C 5.335938 -2.257812 6.304688 -1.90625 7.453125 -1.90625 C 8.234375 -1.90625 8.867188 -2.019531 9.359375 -2.25 C 9.847656 -2.476562 10.273438 -2.769531 10.640625 -3.125 C 10.890625 -3.269531 11.128906 -3.34375 11.359375 -3.34375 C 11.628906 -3.34375 11.859375 -3.242188 12.046875 -3.046875 C 12.234375 -2.859375 12.328125 -2.632812 12.328125 -2.375 C 12.328125 -2.03125 12.164062 -1.71875 11.84375 -1.4375 C 11.375 -0.96875 10.75 -0.566406 9.96875 -0.234375 C 9.1875 0.0859375 8.390625 0.25 7.578125 0.25 C 6.253906 0.25 5.09375 -0.0234375 4.09375 -0.578125 C 3.09375 -1.140625 2.316406 -1.914062 1.765625 -2.90625 C 1.222656 -3.894531 0.953125 -5.019531 0.953125 -6.28125 C 0.953125 -7.644531 1.234375 -8.84375 1.796875 -9.875 C 2.359375 -10.90625 3.097656 -11.695312 4.015625 -12.25 C 4.929688 -12.8125 5.921875 -13.09375 6.984375 -13.09375 C 8.023438 -13.09375 9 -12.820312 9.90625 -12.28125 C 10.820312 -11.75 11.554688 -11.007812 12.109375 -10.0625 C 12.660156 -9.113281 12.945312 -8.054688 12.96875 -6.890625 Z M 6.984375 -10.9375 C 6.066406 -10.9375 5.273438 -10.679688 4.609375 -10.171875 C 3.941406 -9.660156 3.503906 -8.867188 3.296875 -7.796875 L 10.5 -7.796875 L 10.5 -7.984375 C 10.414062 -8.847656 10.023438 -9.554688 9.328125 -10.109375 C 8.640625 -10.660156 7.859375 -10.9375 6.984375 -10.9375 Z M 6.984375 -10.9375 "/></g></g></g><g fill="#6462f1" fill-opacity="1"><g transform="translate(198.395642, 128.477078)"><g><path d="M 8.25 -13.09375 C 11.1875 -13.09375 12.65625 -11.332031 12.65625 -7.8125 L 12.65625 -1.171875 C 12.65625 -0.847656 12.539062 -0.570312 12.3125 -0.34375 C 12.09375 -0.113281 11.816406 0 11.484375 0 C 11.148438 0 10.875 -0.113281 10.65625 -0.34375 C 10.4375 -0.570312 10.328125 -0.847656 10.328125 -1.171875 L 10.328125 -7.796875 C 10.328125 -8.753906 10.109375 -9.515625 9.671875 -10.078125 C 9.234375 -10.648438 8.515625 -10.9375 7.515625 -10.9375 C 6.867188 -10.9375 6.28125 -10.796875 5.75 -10.515625 C 5.21875 -10.234375 4.800781 -9.847656 4.5 -9.359375 C 4.195312 -8.878906 4.046875 -8.359375 4.046875 -7.796875 L 4.046875 -1.171875 C 4.046875 -0.847656 3.9375 -0.570312 3.71875 -0.34375 C 3.5 -0.113281 3.21875 0 2.875 0 C 2.539062 0 2.265625 -0.109375 2.046875 -0.328125 C 1.835938 -0.546875 1.734375 -0.828125 1.734375 -1.171875 L 1.734375 -11.625 C 1.734375 -11.945312 1.84375 -12.222656 2.0625 -12.453125 C 2.28125 -12.679688 2.550781 -12.796875 2.875 -12.796875 C 3.21875 -12.796875 3.5 -12.679688 3.71875 -12.453125 C 3.9375 -12.222656 4.046875 -11.945312 4.046875 -11.625 L 4.046875 -10.765625 C 4.472656 -11.421875 5.0625 -11.972656 5.8125 -12.421875 C 6.570312 -12.867188 7.382812 -13.09375 8.25 -13.09375 Z M 8.25 -13.09375 "/></g></g></g><g fill="#6462f1" fill-opacity="1"><g transform="translate(228.696879, 128.477078)"><g><path d="M 5.203125 -10.53125 L 5.203125 -3.25 C 5.203125 -2.4375 5.566406 -2.03125 6.296875 -2.03125 C 6.410156 -2.03125 6.566406 -2.054688 6.765625 -2.109375 C 6.960938 -2.171875 7.117188 -2.203125 7.234375 -2.203125 C 7.441406 -2.203125 7.617188 -2.109375 7.765625 -1.921875 C 7.910156 -1.742188 7.984375 -1.519531 7.984375 -1.25 C 7.984375 -0.90625 7.785156 -0.609375 7.390625 -0.359375 C 7.003906 -0.117188 6.566406 0 6.078125 0 C 5.546875 0 5.054688 -0.0546875 4.609375 -0.171875 C 4.160156 -0.285156 3.757812 -0.570312 3.40625 -1.03125 C 3.050781 -1.5 2.875 -2.207031 2.875 -3.15625 L 2.875 -10.53125 L 1.46875 -10.53125 C 1.15625 -10.53125 0.894531 -10.628906 0.6875 -10.828125 C 0.488281 -11.035156 0.390625 -11.289062 0.390625 -11.59375 C 0.390625 -11.90625 0.488281 -12.160156 0.6875 -12.359375 C 0.894531 -12.554688 1.15625 -12.65625 1.46875 -12.65625 L 2.875 -12.65625 L 2.875 -14.703125 C 2.875 -15.023438 2.984375 -15.300781 3.203125 -15.53125 C 3.429688 -15.757812 3.710938 -15.875 4.046875 -15.875 C 4.378906 -15.875 4.65625 -15.757812 4.875 -15.53125 C 5.09375 -15.300781 5.203125 -15.023438 5.203125 -14.703125 L 5.203125 -12.65625 L 7.234375 -12.65625 C 7.535156 -12.65625 7.785156 -12.550781 7.984375 -12.34375 C 8.191406 -12.144531 8.296875 -11.890625 8.296875 -11.578125 C 8.296875 -11.265625 8.191406 -11.007812 7.984375 -10.8125 C 7.785156 -10.625 7.535156 -10.53125 7.234375 -10.53125 Z M 5.203125 -10.53125 "/></g></g></g><g fill="#6462f1" fill-opacity="1"><g transform="translate(253.896671, 128.477078)"><g><path d="M 1 -2 C 0.851562 -2.226562 0.78125 -2.445312 0.78125 -2.65625 C 0.78125 -2.988281 0.953125 -3.269531 1.296875 -3.5 C 1.453125 -3.601562 1.640625 -3.65625 1.859375 -3.65625 C 2.148438 -3.65625 2.414062 -3.535156 2.65625 -3.296875 C 3.144531 -2.742188 3.671875 -2.328125 4.234375 -2.046875 C 4.796875 -1.773438 5.46875 -1.640625 6.25 -1.640625 C 6.875 -1.648438 7.421875 -1.789062 7.890625 -2.0625 C 8.359375 -2.332031 8.59375 -2.769531 8.59375 -3.375 C 8.59375 -3.925781 8.351562 -4.347656 7.875 -4.640625 C 7.394531 -4.929688 6.691406 -5.203125 5.765625 -5.453125 C 4.847656 -5.691406 4.085938 -5.945312 3.484375 -6.21875 C 2.890625 -6.488281 2.382812 -6.878906 1.96875 -7.390625 C 1.550781 -7.898438 1.34375 -8.570312 1.34375 -9.40625 C 1.34375 -10.132812 1.550781 -10.773438 1.96875 -11.328125 C 2.382812 -11.878906 2.9375 -12.3125 3.625 -12.625 C 4.320312 -12.9375 5.078125 -13.09375 5.890625 -13.09375 C 6.671875 -13.09375 7.445312 -12.945312 8.21875 -12.65625 C 8.988281 -12.363281 9.617188 -11.914062 10.109375 -11.3125 C 10.304688 -11.082031 10.40625 -10.84375 10.40625 -10.59375 C 10.40625 -10.332031 10.273438 -10.082031 10.015625 -9.84375 C 9.847656 -9.695312 9.644531 -9.625 9.40625 -9.625 C 9.113281 -9.625 8.875 -9.722656 8.6875 -9.921875 C 8.351562 -10.304688 7.9375 -10.601562 7.4375 -10.8125 C 6.9375 -11.03125 6.382812 -11.140625 5.78125 -11.140625 C 5.164062 -11.140625 4.640625 -11.007812 4.203125 -10.75 C 3.773438 -10.5 3.5625 -10.070312 3.5625 -9.46875 C 3.582031 -8.90625 3.832031 -8.484375 4.3125 -8.203125 C 4.789062 -7.929688 5.523438 -7.664062 6.515625 -7.40625 C 7.378906 -7.175781 8.097656 -6.929688 8.671875 -6.671875 C 9.242188 -6.410156 9.722656 -6.019531 10.109375 -5.5 C 10.503906 -4.988281 10.703125 -4.320312 10.703125 -3.5 C 10.703125 -2.726562 10.476562 -2.0625 10.03125 -1.5 C 9.59375 -0.9375 9.019531 -0.503906 8.3125 -0.203125 C 7.601562 0.0976562 6.851562 0.25 6.0625 0.25 C 5.03125 0.25 4.078125 0.0703125 3.203125 -0.28125 C 2.335938 -0.644531 1.601562 -1.21875 1 -2 Z M 1 -2 "/></g></g></g></svg>